<?xml version="1.0" encoding="utf-8"?>
<!-- Generator: Adobe Illustrator 22.1.0, SVG Export Plug-In . SVG Version: 6.00 Build 0)  -->
<svg version="1.1" id="Layer_1" xmlns="http://www.w3.org/2000/svg" xmlns:xlink="http://www.w3.org/1999/xlink" x="0px" y="0px"
	 viewBox="0 0 792 612" style="enable-background:new 0 0 792 612;" xml:space="preserve">
<style type="text/css">
	.st0{fill:#68111C;}
	.st1{fill:#BE1E2D;}
</style>
<g>
	<g>
		<path class="st0" d="M227.12061,158.73877h41.93408c15.24854,0,21.30908,6.45117,18.86523,18.27881
			c-1.46631,6.84229-5.57178,12.90234-16.61719,15.34619v0.1958c10.55664,1.46582,13.1958,8.99268,11.63184,16.51904
			c-2.5415,12.12061-13.78223,20.23389-31.37695,20.23389h-39.39209L227.12061,158.73877z M241.5874,214.25928h3.90967
			c6.84277,0,10.06836-2.24805,11.14355-7.42871c0.87988-4.30078-1.95508-6.35352-8.50391-6.35352h-3.6167L241.5874,214.25928z
			 M250.18945,173.79199l-2.83496,13.39111h3.71436c6.45166,0,9.09082-2.93213,9.97021-7.0376
			c0.97754-4.69189-1.66162-6.35352-7.2334-6.35352H250.18945z"/>
		<path class="st0" d="M316.95312,158.73877h36.26465l7.72217,70.57373h-28.93359l-0.29297-11.33887h-20.23389l-5.27832,11.33887
			h-26.7832L316.95312,158.73877z M331.22461,200.77002l0.09766-26.5874h-0.19531l-11.82764,26.5874H331.22461z"/>
		<path class="st0" d="M379.02539,158.73877h33.52734l5.96289,42.71582h0.19531l8.99316-42.71582h22.67773l-14.95605,70.57373
			h-33.52734l-5.76758-43.00879h-0.19531l-9.18799,43.00879h-22.67725L379.02539,158.73877z"/>
		<path class="st0" d="M488.0166,189.5293h36.3623l-7.91797,36.94873c-11.53418,2.83447-24.63281,4.69189-36.16699,4.69189
			c-25.41406,0-34.50488-15.54199-29.91016-37.14453c4.59375-21.60205,20.33105-37.14404,46.52734-37.14404
			c21.7002,0,31.47461,7.13574,28.24902,23.65479h-26.19629c0.3916-2.24805-0.19531-3.71436-1.17285-4.59375
			c-0.97754-0.87988-2.54102-1.271-4.30078-1.271c-4.20312,0-7.42871,2.15039-9.38379,4.98535
			c-1.95508,2.83447-3.8125,9.7749-5.08301,15.7373c-1.46582,6.84229-1.85742,11.53418-1.0752,13.78223
			c0.97754,2.93262,3.51855,4.20312,7.13574,4.20312c2.63867,0,5.18066-0.39062,7.72168-1.46582l1.75977-8.50439h-9.5791
			L488.0166,189.5293z"/>
		<path class="st0" d="M529.65918,213.28174h23.65527l-3.4209,16.03076h-23.65527L529.65918,213.28174z M539.04297,158.73877
			h27.95605l-14.75977,49.94873h-19.5498L539.04297,158.73877z"/>
		<path class="st0" d="M227.12061,258.11963h41.93408c15.24854,0,21.30908,6.45117,18.86523,18.27881
			c-1.46631,6.84229-5.57178,12.90234-16.61719,15.34619v0.1958c10.55664,1.46582,13.1958,8.99268,11.63184,16.51904
			c-2.5415,12.12061-13.78223,20.23389-31.37695,20.23389h-39.39209L227.12061,258.11963z M241.5874,313.64014h3.90967
			c6.84277,0,10.06836-2.24805,11.14355-7.42871c0.87988-4.30078-1.95508-6.35352-8.50391-6.35352h-3.6167L241.5874,313.64014z
			 M250.18945,273.17285l-2.83496,13.39111h3.71436c6.45166,0,9.09082-2.93213,9.97021-7.0376
			c0.97754-4.69189-1.66162-6.35352-7.2334-6.35352H250.18945z"/>
		<path class="st0" d="M316.95312,258.11963h36.26465l7.72217,70.57373h-28.93359l-0.29297-11.33887h-20.23389l-5.27832,11.33887
			h-26.7832L316.95312,258.11963z M331.22461,300.15088l0.09766-26.5874h-0.19531l-11.82764,26.5874H331.22461z"/>
		<path class="st0" d="M379.02539,258.11963h33.52734l5.96289,42.71582h0.19531l8.99316-42.71582h22.67773l-14.95605,70.57373
			h-33.52734l-5.76758-43.00879h-0.19531l-9.18799,43.00879h-22.67725L379.02539,258.11963z"/>
		<path class="st0" d="M488.0166,288.91016h36.3623l-7.91797,36.94873c-11.53418,2.83447-24.63281,4.69189-36.16699,4.69189
			c-25.41406,0-34.50488-15.54199-29.91016-37.14453c4.59375-21.60205,20.33105-37.14404,46.52734-37.14404
			c21.7002,0,31.47461,7.13574,28.24902,23.65479h-26.19629c0.3916-2.24805-0.19531-3.71436-1.17285-4.59375
			c-0.97754-0.87988-2.54102-1.271-4.30078-1.271c-4.20312,0-7.42871,2.15039-9.38379,4.98535
			c-1.95508,2.83447-3.8125,9.7749-5.08301,15.7373c-1.46582,6.84229-1.85742,11.53418-1.0752,13.78223
			c0.97754,2.93262,3.51855,4.20312,7.13574,4.20312c2.63867,0,5.18066-0.39062,7.72168-1.46582l1.75977-8.50439h-9.5791
			L488.0166,288.91016z"/>
		<path class="st0" d="M529.65918,312.6626h23.65527l-3.4209,16.03076h-23.65527L529.65918,312.6626z M539.04297,258.11963h27.95605
			l-14.75977,49.94873h-19.5498L539.04297,258.11963z"/>
		<path class="st0" d="M227.12061,357.50049h41.93408c15.24854,0,21.30908,6.45117,18.86523,18.27881
			c-1.46631,6.84229-5.57178,12.90234-16.61719,15.34619v0.1958c10.55664,1.46582,13.1958,8.99268,11.63184,16.51904
			c-2.5415,12.12061-13.78223,20.23389-31.37695,20.23389h-39.39209L227.12061,357.50049z M241.5874,413.021h3.90967
			c6.84277,0,10.06836-2.24805,11.14355-7.42871c0.87988-4.30078-1.95508-6.35352-8.50391-6.35352h-3.6167L241.5874,413.021z
			 M250.18945,372.55371l-2.83496,13.39111h3.71436c6.45166,0,9.09082-2.93213,9.97021-7.0376
			c0.97754-4.69189-1.66162-6.35352-7.2334-6.35352H250.18945z"/>
		<path class="st0" d="M316.95312,357.50049h36.26465l7.72217,70.57373h-28.93359l-0.29297-11.33887h-20.23389l-5.27832,11.33887
			h-26.7832L316.95312,357.50049z M331.22461,399.53174l0.09766-26.5874h-0.19531l-11.82764,26.5874H331.22461z"/>
		<path class="st0" d="M379.02539,357.50049h33.52734l5.96289,42.71582h0.19531l8.99316-42.71582h22.67773l-14.95605,70.57373
			h-33.52734l-5.76758-43.00879h-0.19531l-9.18799,43.00879h-22.67725L379.02539,357.50049z"/>
		<path class="st0" d="M488.0166,388.29102h36.3623l-7.91797,36.94873c-11.53418,2.83447-24.63281,4.69189-36.16699,4.69189
			c-25.41406,0-34.50488-15.54199-29.91016-37.14453c4.59375-21.60205,20.33105-37.14404,46.52734-37.14404
			c21.7002,0,31.47461,7.13574,28.24902,23.65479h-26.19629c0.3916-2.24805-0.19531-3.71436-1.17285-4.59375
			c-0.97754-0.87988-2.54102-1.271-4.30078-1.271c-4.20312,0-7.42871,2.15039-9.38379,4.98535
			c-1.95508,2.83447-3.8125,9.7749-5.08301,15.7373c-1.46582,6.84229-1.85742,11.53418-1.0752,13.78223
			c0.97754,2.93262,3.51855,4.20312,7.13574,4.20312c2.63867,0,5.18066-0.39062,7.72168-1.46582l1.75977-8.50439h-9.5791
			L488.0166,388.29102z"/>
		<path class="st0" d="M529.65918,412.04346h23.65527l-3.4209,16.03076h-23.65527L529.65918,412.04346z M539.04297,357.50049
			h27.95605l-14.75977,49.94873h-19.5498L539.04297,357.50049z"/>
	</g>
	<g>
		<path class="st1" d="M217.896,151.61572h41.93408c15.24854,0,21.30908,6.45117,18.86523,18.27881
			c-1.46631,6.84229-5.57178,12.90234-16.61719,15.34619v0.1958c10.55664,1.46582,13.1958,8.99268,11.63184,16.51904
			c-2.5415,12.12061-13.78223,20.23389-31.37695,20.23389h-39.39209L217.896,151.61572z M232.36279,207.13623h3.90967
			c6.84277,0,10.06836-2.24805,11.14355-7.42871c0.87988-4.30078-1.95508-6.35352-8.50391-6.35352h-3.6167L232.36279,207.13623z
			 M240.96484,166.66895l-2.83496,13.39111h3.71436c6.45166,0,9.09082-2.93213,9.97021-7.0376
			c0.97754-4.69189-1.66162-6.35352-7.2334-6.35352H240.96484z"/>
		<path class="st1" d="M307.72852,151.61572h36.26465l7.72217,70.57373h-28.93359l-0.29297-11.33887h-20.23389l-5.27832,11.33887
			h-26.7832L307.72852,151.61572z M322,193.64697l0.09766-26.5874h-0.19531l-11.82764,26.5874H322z"/>
		<path class="st1" d="M369.80078,151.61572h33.52734l5.96289,42.71582h0.19531l8.99316-42.71582h22.67773l-14.95605,70.57373
			h-33.52734l-5.76709-43.00879h-0.19531l-9.18848,43.00879H354.8457L369.80078,151.61572z"/>
		<path class="st1" d="M478.79199,182.40625h36.3623l-7.91797,36.94873c-11.53418,2.83447-24.63281,4.69189-36.16699,4.69189
			c-25.41406,0-34.50488-15.54199-29.91016-37.14453c4.59375-21.60205,20.33105-37.14404,46.52734-37.14404
			c21.7002,0,31.47461,7.13574,28.24902,23.65479h-26.19629c0.3916-2.24805-0.19531-3.71436-1.17285-4.59375
			c-0.97754-0.87988-2.54102-1.271-4.30078-1.271c-4.20312,0-7.42871,2.15039-9.38379,4.98535
			c-1.95508,2.83447-3.8125,9.7749-5.08301,15.7373c-1.46582,6.84229-1.85742,11.53418-1.0752,13.78223
			c0.97754,2.93262,3.51855,4.20312,7.13574,4.20312c2.63867,0,5.18066-0.39062,7.72168-1.46582l1.75977-8.50439h-9.5791
			L478.79199,182.40625z"/>
		<path class="st1" d="M520.43457,206.15869h23.65527l-3.4209,16.03076h-23.65527L520.43457,206.15869z M529.81836,151.61572
			h27.95605l-14.75977,49.94873h-19.5498L529.81836,151.61572z"/>
		<path class="st1" d="M217.896,250.99658h41.93408c15.24854,0,21.30908,6.45117,18.86523,18.27881
			c-1.46631,6.84229-5.57178,12.90234-16.61719,15.34619v0.1958c10.55664,1.46582,13.1958,8.99268,11.63184,16.51904
			c-2.5415,12.12061-13.78223,20.23389-31.37695,20.23389h-39.39209L217.896,250.99658z M232.36279,306.51709h3.90967
			c6.84277,0,10.06836-2.24805,11.14355-7.42871c0.87988-4.30078-1.95508-6.35352-8.50391-6.35352h-3.6167L232.36279,306.51709z
			 M240.96484,266.0498l-2.83496,13.39111h3.71436c6.45166,0,9.09082-2.93213,9.97021-7.0376
			c0.97754-4.69189-1.66162-6.35352-7.2334-6.35352H240.96484z"/>
		<path class="st1" d="M307.72852,250.99658h36.26465l7.72217,70.57373h-28.93359l-0.29297-11.33887h-20.23389l-5.27832,11.33887
			h-26.7832L307.72852,250.99658z M322,293.02783l0.09766-26.5874h-0.19531l-11.82764,26.5874H322z"/>
		<path class="st1" d="M369.80078,250.99658h33.52734l5.96289,42.71582h0.19531l8.99316-42.71582h22.67773l-14.95605,70.57373
			h-33.52734l-5.76709-43.00879h-0.19531l-9.18848,43.00879H354.8457L369.80078,250.99658z"/>
		<path class="st1" d="M478.79199,281.78711h36.3623l-7.91797,36.94873c-11.53418,2.83447-24.63281,4.69189-36.16699,4.69189
			c-25.41406,0-34.50488-15.54199-29.91016-37.14453c4.59375-21.60205,20.33105-37.14404,46.52734-37.14404
			c21.7002,0,31.47461,7.13574,28.24902,23.65479h-26.19629c0.3916-2.24805-0.19531-3.71436-1.17285-4.59375
			c-0.97754-0.87988-2.54102-1.271-4.30078-1.271c-4.20312,0-7.42871,2.15039-9.38379,4.98535
			c-1.95508,2.83447-3.8125,9.7749-5.08301,15.7373c-1.46582,6.84229-1.85742,11.53418-1.0752,13.78223
			c0.97754,2.93262,3.51855,4.20312,7.13574,4.20312c2.63867,0,5.18066-0.39062,7.72168-1.46582l1.75977-8.50439h-9.5791
			L478.79199,281.78711z"/>
		<path class="st1" d="M520.43457,305.53955h23.65527l-3.4209,16.03076h-23.65527L520.43457,305.53955z M529.81836,250.99658
			h27.95605l-14.75977,49.94873h-19.5498L529.81836,250.99658z"/>
		<path class="st1" d="M217.896,350.37744h41.93408c15.24854,0,21.30908,6.45117,18.86523,18.27881
			c-1.46631,6.84229-5.57178,12.90234-16.61719,15.34619v0.1958c10.55664,1.46582,13.1958,8.99268,11.63184,16.51904
			c-2.5415,12.12061-13.78223,20.23389-31.37695,20.23389h-39.39209L217.896,350.37744z M232.36279,405.89795h3.90967
			c6.84277,0,10.06836-2.24805,11.14355-7.42871c0.87988-4.30078-1.95508-6.35352-8.50391-6.35352h-3.6167L232.36279,405.89795z
			 M240.96484,365.43066l-2.83496,13.39111h3.71436c6.45166,0,9.09082-2.93213,9.97021-7.0376
			c0.97754-4.69189-1.66162-6.35352-7.2334-6.35352H240.96484z"/>
		<path class="st1" d="M307.72852,350.37744h36.26465l7.72217,70.57373h-28.93359l-0.29297-11.33887h-20.23389l-5.27832,11.33887
			h-26.7832L307.72852,350.37744z M322,392.40869l0.09766-26.5874h-0.19531l-11.82764,26.5874H322z"/>
		<path class="st1" d="M369.80078,350.37744h33.52734l5.96289,42.71582h0.19531l8.99316-42.71582h22.67773l-14.95605,70.57373
			h-33.52734l-5.76709-43.00879h-0.19531l-9.18848,43.00879H354.8457L369.80078,350.37744z"/>
		<path class="st1" d="M478.79199,381.16797h36.3623l-7.91797,36.94873c-11.53418,2.83447-24.63281,4.69189-36.16699,4.69189
			c-25.41406,0-34.50488-15.54199-29.91016-37.14453c4.59375-21.60205,20.33105-37.14404,46.52734-37.14404
			c21.7002,0,31.47461,7.13574,28.24902,23.65479h-26.19629c0.3916-2.24805-0.19531-3.71436-1.17285-4.59375
			c-0.97754-0.87988-2.54102-1.271-4.30078-1.271c-4.20312,0-7.42871,2.15039-9.38379,4.98535
			c-1.95508,2.83447-3.8125,9.7749-5.08301,15.7373c-1.46582,6.84229-1.85742,11.53418-1.0752,13.78223
			c0.97754,2.93262,3.51855,4.20312,7.13574,4.20312c2.63867,0,5.18066-0.39062,7.72168-1.46582l1.75977-8.50439h-9.5791
			L478.79199,381.16797z"/>
		<path class="st1" d="M520.43457,404.92041h23.65527l-3.4209,16.03076h-23.65527L520.43457,404.92041z M529.81836,350.37744
			h27.95605l-14.75977,49.94873h-19.5498L529.81836,350.37744z"/>
	</g>
</g>
</svg>
