<?xml version="1.0" encoding="utf-8"?>
<!-- Generator: Adobe Illustrator 23.0.3, SVG Export Plug-In . SVG Version: 6.00 Build 0)  -->
<svg version="1.1" id="Layer_1" xmlns="http://www.w3.org/2000/svg" xmlns:xlink="http://www.w3.org/1999/xlink" x="0px" y="0px"
	 viewBox="0 0 758 305" style="enable-background:new 0 0 758 305;" xml:space="preserve">
<style type="text/css">
	.st0{fill:#FFFFFF;}
	.st1{fill:#BE1E2D;}
	.st2{fill:#A6A8AB;}
</style>
<g id="w-text">
</g>
<g>
	<path class="st0" d="M256.01074,4.19189h14.56152c11.44141,0,13.57959,7.62744,13.57959,20.62939
		c0,6.41406,0.98242,21.09131-13.92627,21.09131h-14.21484V4.19189z M264.73633,39.49854h4.21826
		c5.31592,0,6.35596-3.9873,6.35596-14.44629c0-7.68555,0-14.44629-6.06738-14.44629h-4.50684V39.49854z"/>
	<path class="st0" d="M290.73779,25.05225c0-11.03711,0-21.55371,14.38818-21.55371c14.38867,0,14.38867,10.5166,14.38867,21.55371
		c0,10.92139,0,21.55371-14.38867,21.55371C290.73779,46.60596,290.73779,35.97363,290.73779,25.05225z M310.67383,25.05225
		c0-10.69043-0.63574-15.31299-5.54785-15.31299c-4.91113,0-5.54688,4.62256-5.54688,15.31299
		c0,10.68994,0.63574,15.31299,5.54688,15.31299C310.03809,40.36523,310.67383,35.74219,310.67383,25.05225z"/>
	<path class="st0" d="M326.44727,45.9126V4.19189h22.76758v6.41406h-14.04199V20.8916h12.94336v6.41406h-12.94336v12.19287h14.50391
		v6.41406H326.44727z"/>
	<path class="st0" d="M366.66504,46.60596c-10.80664,0-12.8291-6.35645-12.36621-13.57959h8.72559
		c0,3.9873,0.17285,7.33887,4.96875,7.33887c2.94727,0,4.39258-1.90674,4.39258-4.73828
		c0-7.51221-17.56738-7.97461-17.56738-20.39844c0-6.5293,3.12109-11.72998,13.75293-11.72998
		c8.49414,0,12.71289,3.81348,12.13477,12.53906h-8.49414c0-3.12012-0.52051-6.29834-4.04492-6.29834
		c-2.83105,0-4.50684,1.56006-4.50684,4.44922c0,7.9165,17.56641,7.22314,17.56641,20.34033
		C381.22656,45.33496,373.30957,46.60596,366.66504,46.60596z"/>
	<path class="st0" d="M408.84473,45.9126h-8.72559V4.19189h16.12207c5.95215,0,9.76562,3.81396,9.76562,10.92139
		c0,5.31592-2.08008,9.30322-7.74316,10.22803v0.11523c1.90723,0.23145,7.57031,0.69336,7.57031,8.20557
		c0,2.6582,0.17285,10.51709,0.98242,12.25049h-8.55273c-1.15527-2.54248-0.92383-5.37402-0.92383-8.08984
		c0-4.96973,0.46191-9.18799-6.24121-9.18799h-2.25391V45.9126z M408.84473,22.2207h3.87207c3.4668,0,4.44922-3.46729,4.44922-6.125
		c0-3.9873-1.67578-5.48975-4.44922-5.48975h-3.87207V22.2207z"/>
	<path class="st0" d="M432.4209,45.9126V4.19189h22.76758v6.41406h-14.04199V20.8916h12.94336v6.41406h-12.94336v12.19287h14.50391
		v6.41406H432.4209z"/>
	<path class="st0" d="M461.48535,4.19189h14.5625c11.44141,0,13.5791,7.62744,13.5791,20.62939
		c0,6.41406,0.98242,21.09131-13.92578,21.09131h-14.21582V4.19189z M470.21094,39.49854h4.21875
		c5.31641,0,6.35645-3.9873,6.35645-14.44629c0-7.68555,0-14.44629-6.06738-14.44629h-4.50781V39.49854z"/>
	<path class="st1" d="M2.40283,128.14209l11.55713-41.7207h11.49902l11.32568,41.7207h-9.1875l-2.31152-9.24561H13.38184
		l-2.36914,9.24561H2.40283z M19.21826,94.45361h-0.11572l-3.9873,18.02881h8.32129L19.21826,94.45361z"/>
	<path class="st1" d="M43.83301,86.42139h15.71777c7.97412,0,11.09473,4.854,11.09473,12.48145
		c0,4.73828-1.38721,12.25049-11.61523,12.25049h-6.47168v16.98877h-8.72559V86.42139z M52.55859,104.73926h4.854
		c2.6001,0,4.3916-2.83154,4.3916-5.60547c0-3.40918-0.9248-6.29834-4.854-6.29834h-4.3916V104.73926z"/>
	<path class="st1" d="M78.84912,86.42139h15.71729c7.97461,0,11.09473,4.854,11.09473,12.48145
		c0,4.73828-1.38672,12.25049-11.61475,12.25049h-6.47168v16.98877h-8.72559V86.42139z M87.57471,104.73926h4.854
		c2.6001,0,4.3916-2.83154,4.3916-5.60547c0-3.40918-0.9248-6.29834-4.854-6.29834h-4.3916V104.73926z"/>
	<path class="st1" d="M122.36035,128.14209h-8.72559v-41.7207h16.12207c5.95166,0,9.76562,3.81396,9.76562,10.92139
		c0,5.31592-2.08057,9.30322-7.74316,10.22803v0.11523c1.90674,0.23145,7.56982,0.69336,7.56982,8.20557
		c0,2.6582,0.17334,10.51709,0.98193,12.25049h-8.55176c-1.15576-2.54248-0.9248-5.37402-0.9248-8.08984
		c0-4.96973,0.4624-9.18799-6.24072-9.18799h-2.25342V128.14209z M122.36035,104.4502h3.87158
		c3.4668,0,4.44922-3.46729,4.44922-6.125c0-3.9873-1.67578-5.48975-4.44922-5.48975h-3.87158V104.4502z"/>
	<path class="st1" d="M148.41992,107.28174c0-11.03711,0-21.55371,14.38867-21.55371c14.38818,0,14.38818,10.5166,14.38818,21.55371
		c0,10.92139,0,21.55371-14.38818,21.55371C148.41992,128.83545,148.41992,118.20312,148.41992,107.28174z M168.35596,107.28174
		c0-10.69043-0.63574-15.31299-5.54736-15.31299s-5.54736,4.62256-5.54736,15.31299c0,10.68994,0.63574,15.31299,5.54736,15.31299
		S168.35596,117.97168,168.35596,107.28174z"/>
	<path class="st1" d="M183.84082,128.14209l11.55664-41.7207h11.49951l11.32568,41.7207h-9.1875l-2.31152-9.24561h-11.90381
		l-2.36914,9.24561H183.84082z M200.65625,94.45361h-0.11572l-3.9873,18.02881h8.32129L200.65625,94.45361z"/>
	<path class="st1" d="M224.80811,107.28174c0-11.03711,0-21.55371,14.38867-21.55371c8.89893,0,12.48145,4.91162,12.13477,13.86816
		h-8.55225c0-5.54736-0.98242-7.62744-3.58252-7.62744c-4.91162,0-5.54736,4.62256-5.54736,15.31299
		c0,10.68994,0.63574,15.31299,5.54736,15.31299c4.04492,0,3.87158-5.20068,3.9873-8.49463h8.60986
		c0,11.15283-4.44971,14.73535-12.59717,14.73535C224.80811,128.83545,224.80811,118.20312,224.80811,107.28174z"/>
	<path class="st1" d="M279.24072,103.12109V86.42139h8.72559v41.7207h-8.72559v-18.60693h-9.99707v18.60693h-8.72559v-41.7207
		h8.72559v16.69971H279.24072z"/>
	<path class="st1" d="M338.9873,86.42139v6.93408h-9.70801v34.78662h-8.72559V93.35547h-9.70801v-6.93408H338.9873z"/>
	<path class="st1" d="M364.93164,103.12109V86.42139h8.72559v41.7207h-8.72559v-18.60693h-9.99609v18.60693h-8.72559v-41.7207
		h8.72559v16.69971H364.93164z"/>
	<path class="st1" d="M384.11426,128.14209v-41.7207h22.76758v6.41406h-14.04199v10.28564h12.94336v6.41406h-12.94336v12.19287
		h14.50391v6.41406H384.11426z"/>
	<path class="st1" d="M450.62207,103.12109V86.42139h8.72559v41.7207h-8.72559v-18.60693h-9.99609v18.60693h-8.72559v-41.7207
		h8.72559v16.69971H450.62207z"/>
	<path class="st1" d="M498.00488,86.42139v29.58594c0,6.24072-3.52539,12.82812-14.15723,12.82812
		c-9.59277,0-14.21582-4.96924-14.21582-12.82812V86.42139h8.72559v29.00781c0,5.14307,2.19629,7.16553,5.37402,7.16553
		c3.81445,0,5.54785-2.54248,5.54785-7.16553V86.42139H498.00488z"/>
	<path class="st1" d="M508.05762,128.14209v-41.7207h11.78809l11.09473,28.89258h0.11523V86.42139h8.14844v41.7207h-11.5
		l-11.38281-30.51025h-0.11621v30.51025H508.05762z"/>
	<path class="st1" d="M574.27734,86.42139v6.93408h-9.70801v34.78662h-8.72559V93.35547h-9.70801v-6.93408H574.27734z"/>
	<path class="st1" d="M592.53613,128.83545c-10.80664,0-12.8291-6.35645-12.36621-13.57959h8.72559
		c0,3.9873,0.17285,7.33887,4.96875,7.33887c2.94727,0,4.39258-1.90674,4.39258-4.73828
		c0-7.51221-17.56738-7.97461-17.56738-20.39844c0-6.5293,3.12109-11.72998,13.75293-11.72998
		c8.49414,0,12.71289,3.81348,12.13477,12.53906h-8.49414c0-3.12012-0.52051-6.29834-4.04492-6.29834
		c-2.83105,0-4.50684,1.56006-4.50684,4.44922c0,7.9165,17.56641,7.22314,17.56641,20.34033
		C607.09766,127.56445,599.18066,128.83545,592.53613,128.83545z"/>
	<path class="st1" d="M616.05273,128.14209v-41.7207h14.04199l6.5293,28.37256h0.11621l6.93359-28.37256h13.58008v41.7207h-8.49414
		V95.95605h-0.11621l-8.03223,32.18604h-8.32031l-7.62793-32.18604h-0.11523v32.18604H616.05273z"/>
	<path class="st1" d="M664.07031,128.14209l11.55762-41.7207h11.49902l11.32617,41.7207h-9.18848l-2.31152-9.24561H675.0498
		l-2.36914,9.24561H664.07031z M680.88574,94.45361h-0.11523l-3.9873,18.02881h8.32129L680.88574,94.45361z"/>
	<path class="st1" d="M705.50098,128.14209v-41.7207h11.78809l11.09473,28.89258h0.11523V86.42139h8.14844v41.7207h-11.5
		l-11.38281-30.51025h-0.11621v30.51025H705.50098z"/>
	<path class="st0" d="M342.10645,189.51172c0-11.03711,0-21.55371,14.3877-21.55371c14.38867,0,14.38867,10.5166,14.38867,21.55371
		c0,10.9209,0,21.55371-14.38867,21.55371C342.10645,211.06543,342.10645,200.43262,342.10645,189.51172z M362.04199,189.51172
		c0-10.69043-0.63574-15.31348-5.54785-15.31348c-4.91113,0-5.54688,4.62305-5.54688,15.31348s0.63574,15.31348,5.54688,15.31348
		C361.40625,204.8252,362.04199,200.20215,362.04199,189.51172z"/>
	<path class="st0" d="M386.36719,210.37207h-8.72559v-41.7207h16.12207c5.95215,0,9.76562,3.81348,9.76562,10.9209
		c0,5.31641-2.08008,9.30371-7.74316,10.22852v0.11523c1.90723,0.23145,7.57031,0.69336,7.57031,8.20605
		c0,2.65723,0.17285,10.5166,0.98242,12.25h-8.55273c-1.15527-2.54297-0.92383-5.37402-0.92383-8.08984
		c0-4.96973,0.46191-9.1875-6.24121-9.1875h-2.25391V210.37207z M386.36719,186.68066h3.87207
		c3.4668,0,4.44922-3.46777,4.44922-6.12598c0-3.9873-1.67578-5.48926-4.44922-5.48926h-3.87207V186.68066z"/>
	<path class="st2" d="M129.40967,292.60156v-41.7207h8.72559v34.78613h13.05957v6.93457H129.40967z"/>
	<path class="st2" d="M157.896,292.60156v-41.7207h22.76709v6.41406h-14.0415v10.28613h12.94385v6.41406h-12.94385v12.19238
		h14.50391v6.41406H157.896z"/>
	<path class="st2" d="M186.49854,292.60156l11.55713-41.7207h11.49902l11.32568,41.7207h-9.1875l-2.31152-9.24512h-11.90381
		l-2.36914,9.24512H186.49854z M203.31396,258.91309h-0.11572l-3.9873,18.02832h8.32129L203.31396,258.91309z"/>
	<path class="st2" d="M222.38184,250.88086h9.07227l6.47168,30.33691h0.11572l7.28076-30.33691h8.60986l-11.03662,41.7207h-10.22803
		L222.38184,250.88086z"/>
	<path class="st2" d="M260.75,292.60156v-41.7207h22.76709v6.41406h-14.0415v10.28613h12.94385v6.41406h-12.94385v12.19238h14.50391
		v6.41406H260.75z"/>
	<path class="st2" d="M327.25781,267.58105v-16.7002h8.72559v41.7207h-8.72559v-18.60645h-9.99609v18.60645h-8.72559v-41.7207
		h8.72559v16.7002H327.25781z"/>
	<path class="st2" d="M346.44141,292.60156v-41.7207h8.72559v41.7207H346.44141z"/>
	<path class="st2" d="M365.21973,292.60156v-41.7207h14.04199l6.53027,28.37207h0.11523l6.93359-28.37207h13.58008v41.7207h-8.49414
		v-32.18652h-0.11621l-8.03223,32.18652h-8.32031l-7.62793-32.18652h-0.11523v32.18652H365.21973z"/>
	<path class="st2" d="M428.95312,292.60156l11.55762-41.7207h11.49902l11.32617,41.7207h-9.18848l-2.31152-9.24512h-11.90332
		l-2.36914,9.24512H428.95312z M445.76855,258.91309h-0.11523l-3.9873,18.02832h8.32129L445.76855,258.91309z"/>
	<path class="st2" d="M470.38379,292.60156v-41.7207h8.72559v34.78613h13.05957v6.93457H470.38379z"/>
	<path class="st2" d="M498.46582,271.74121c0-11.03711,0-21.55371,14.3877-21.55371c14.38867,0,14.38867,10.5166,14.38867,21.55371
		c0,10.9209,0,21.55371-14.38867,21.55371C498.46582,293.29492,498.46582,282.66211,498.46582,271.74121z M518.40137,271.74121
		c0-10.69043-0.63574-15.31348-5.54785-15.31348c-4.91113,0-5.54688,4.62305-5.54688,15.31348s0.63574,15.3125,5.54688,15.3125
		C517.76562,287.05371,518.40137,282.43164,518.40137,271.74121z"/>
	<path class="st2" d="M537.12207,292.60156v-41.7207h11.78809l11.09473,28.89258h0.11523v-28.89258h8.14844v41.7207h-11.5
		l-11.38281-30.51074h-0.11621v30.51074H537.12207z"/>
	<path class="st2" d="M578.49414,292.60156v-41.7207h22.76758v6.41406h-14.04199v10.28613h12.94336v6.41406h-12.94336v12.19238
		h14.50391v6.41406H578.49414z"/>
	<path class="st0" d="M615.99512,281.44922v-5.95215c0-2.54199,1.55957-5.08496,3.12012-7.62793
		c1.50293-2.54199,3.0625-5.08496,3.0625-7.62695c0-2.31152-0.63574-4.16113-3.35156-4.16113
		c-3.12012,0-3.12012,3.29395-3.12012,5.95215h-6.93457c0-4.10254-0.17285-11.8457,10.86426-11.8457
		c5.89355,0,10.5166,3.23535,10.5166,9.41895c0,4.7959-2.02246,7.8584-4.10254,10.34375
		c-2.02246,2.54199-4.10254,4.50684-4.10254,7.33789v4.16113H615.99512z M615.59082,292.60156v-6.93457h6.93359v6.93457H615.59082z"
		/>
</g>
</svg>
