<?xml version="1.0" encoding="utf-8"?>
<!-- Generator: Adobe Illustrator 23.0.3, SVG Export Plug-In . SVG Version: 6.00 Build 0)  -->
<svg version="1.1" xmlns="http://www.w3.org/2000/svg" xmlns:xlink="http://www.w3.org/1999/xlink" x="0px" y="0px"
	 viewBox="0 0 582.7019 237.7247" style="enable-background:new 0 0 582.7019 237.7247;" xml:space="preserve">
<style type="text/css">
	.st0{fill:#FFFFFF;}
	.st1{fill:#BD202F;}
	.st2{fill:#A5A7AA;}
</style>
<g id="w-text">
</g>
<g id="w-title">
	<g>
		<path class="st0" d="M185.78285,10.14067h12.09668c9.50488,0,11.28125,6.33691,11.28125,17.1377
			c0,5.32861,0.81592,17.52148-11.56885,17.52148h-11.80908V10.14067z M193.03139,39.47123h3.50439
			c4.41602,0,5.28027-3.31201,5.28027-12.00098c0-6.38428,0-12.00098-5.04053-12.00098h-3.74414V39.47123z"/>
		<path class="st0" d="M217.03041,27.47026c0-9.16846,0-17.90527,11.95312-17.90527s11.95312,8.73682,11.95312,17.90527
			c0,9.07275,0,17.90576-11.95312,17.90576S217.03041,36.54301,217.03041,27.47026z M233.59193,27.47026
			c0-8.88086-0.52832-12.72119-4.6084-12.72119c-4.08105,0-4.6084,3.84033-4.6084,12.72119s0.52734,12.72119,4.6084,12.72119
			C233.06361,40.19145,233.59193,36.35112,233.59193,27.47026z"/>
		<path class="st0" d="M249.09389,44.79985V10.14067h18.91307v5.32861h-11.66504v8.54492h10.75293v5.32812h-10.75293v10.12891
			h12.0498v5.32861H249.09389z"/>
		<path class="st0" d="M284.90247,45.37602c-8.97656,0-10.65625-5.28076-10.27246-11.28125h7.24902
			c0,3.3125,0.14355,6.09668,4.12793,6.09668c2.44824,0,3.64844-1.58398,3.64844-3.93652
			c0-6.24023-14.59375-6.62451-14.59375-16.94531c0-5.42432,2.59277-9.74463,11.42578-9.74463
			c7.05664,0,10.56055,3.16797,10.08008,10.4165h-7.05664c0-2.5918-0.43164-5.23242-3.35938-5.23242
			c-2.35254,0-3.74512,1.29639-3.74512,3.69629c0,6.57666,14.59375,6.00098,14.59375,16.89746
			C297.00012,44.31987,290.42297,45.37602,284.90247,45.37602z"/>
		<path class="st0" d="M324.74133,44.79985h-7.24902V10.14067h13.39355c4.94434,0,8.1123,3.16846,8.1123,9.07275
			c0,4.4165-1.72754,7.729-6.43262,8.49707v0.0957c1.58496,0.19238,6.28906,0.57617,6.28906,6.81689
			c0,2.20801,0.14355,8.73682,0.81641,10.17676h-7.10547c-0.95996-2.1123-0.76758-4.46436-0.76758-6.7207
			c0-4.12842,0.38379-7.63232-5.18457-7.63232h-1.87207V44.79985z M324.74133,25.11821h3.21582
			c2.88086,0,3.69629-2.88037,3.69629-5.08838c0-3.3125-1.3916-4.56055-3.69629-4.56055h-3.21582V25.11821z"/>
		<path class="st0" d="M346.72571,44.79985V10.14067h18.91309v5.32861h-11.66504v8.54492h10.75293v5.32812h-10.75293v10.12891
			h12.0498v5.32861H346.72571z"/>
		<path class="st0" d="M373.26868,10.14067h12.09766c9.50488,0,11.28027,6.33691,11.28027,17.1377
			c0,5.32861,0.81641,17.52148-11.56836,17.52148h-11.80957V10.14067z M380.5177,39.47123h3.50391
			c4.41699,0,5.28125-3.31201,5.28125-12.00098c0-6.38428,0-12.00098-5.04102-12.00098h-3.74414V39.47123z"/>
		<path class="st1" d="M20.48402,73.94096v-2.21973c0-3.06006-1.5-4.91992-3.83984-4.91992
			c-2.75977,0-4.13965,2.52002-4.13965,7.13965v21.83936c0,3.47998,1.67969,5.69971,4.13965,5.69971
			c1.68018,0,3.06006-0.23975,3.83984-0.41992V88.34038h-3.95947v-5.03955h9.95947v21.7793
			c-2.33984,0.53955-6.47998,1.07959-9.8999,1.07959c-7.61963,0-10.07959-4.01953-10.07959-10.73926V73.52104
			c0-8.09961,2.45996-11.39942,10.19971-11.39942c6.41992,0,9.77979,2.33985,9.77979,7.85987v3.95947H20.48402z"/>
		<path class="st1" d="M33.74476,73.52104c0-6.05957,1.97998-11.39942,10.13965-11.39942
			c7.73975,0,10.19922,4.02002,10.19922,10.73975V94.7603c0,6.05957-1.97998,11.39941-10.19922,11.39941
			c-7.67969,0-10.13965-4.01953-10.13965-10.73926V73.52104z M39.74427,95.78032c0,3.71973,1.68018,5.69971,4.14014,5.69971
			c2.51953,0,4.19971-1.97998,4.19971-5.69971V73.04106c0-4.25977-1.43994-6.23975-4.19971-6.23975
			c-2.7002,0-4.14014,1.97998-4.14014,6.23975V95.78032z"/>
		<path class="st1" d="M71.42445,62.48149h20.39941v5.04004h-7.19971v38.27832h-6V67.52153h-7.19971V62.48149z"/>
		<path class="st1" d="M96.50452,73.52104c0-6.05957,1.97998-11.39942,10.13965-11.39942
			c7.73975,0,10.19922,4.02002,10.19922,10.73975V94.7603c0,6.05957-1.97998,11.39941-10.19922,11.39941
			c-7.67969,0-10.13965-4.01953-10.13965-10.73926V73.52104z M102.50404,95.78032c0,3.71973,1.68018,5.69971,4.14014,5.69971
			c2.51953,0,4.19971-1.97998,4.19971-5.69971V73.04106c0-4.25977-1.43994-6.23975-4.19971-6.23975
			c-2.7002,0-4.14014,1.97998-4.14014,6.23975V95.78032z"/>
		<path class="st1" d="M121.94495,62.48149h6.18018l4.31934,35.63868h0.12012l4.7998-35.63868h8.15967l3.95996,35.63868h0.12012
			l5.15967-35.63868h5.63965l-7.7998,43.31836h-7.31934l-4.02002-36.23828h-0.12012l-5.09961,36.23828h-7.25977L121.94495,62.48149z
			"/>
		<path class="st1" d="M170.78432,62.48149h6.95947l8.81982,43.31836h-6l-1.97949-11.03955h-9.35986l-1.97998,11.03955h-5.99951
			L170.78432,62.48149z M170.12416,89.72075h7.61963l-3.71973-20.87939h-0.12012L170.12416,89.72075z"/>
		<path class="st1" d="M192.4435,62.48149h9.2998c8.75977,0,9.65967,2.33985,9.65967,11.81983
			c0,5.81982-0.77979,8.33936-5.69971,9.83936v0.12012c4.07959,0.41992,5.45947,2.52002,5.45947,6.59961v9.41992
			c0,1.55957,0,3.71973,0.36035,5.51953h-5.64014c-0.59961-1.08008-0.71973-2.16016-0.71973-3.8999v-9.77979
			c0-4.07959-0.72021-5.15967-4.67969-5.15967h-2.04004v18.83936h-6V62.48149z M198.4435,81.92094h1.56006
			c4.73975,0,5.39941-0.8999,5.39941-7.37988c0-6.41992-0.35986-7.01953-4.07959-7.01953h-2.87988V81.92094z"/>
		<path class="st1" d="M218.78334,62.48149h9.65918c9.71973,0,10.5,3.24024,10.5,15.83936v12.89941
			c0,11.09961-1.98047,14.57959-11.45996,14.57959h-8.69922V62.48149z M224.78236,100.75981h2.87988
			c4.44043,0,5.28027-2.33984,5.28027-9.7793V76.10112c0-6.41992-0.66016-8.57959-5.75977-8.57959h-2.40039V100.75981z"/>
		<path class="st1" d="M245.54213,93.2603h6v3.54004c0,2.87988,1.08008,4.67969,3.47949,4.67969
			c3.18065,0,3.95995-2.15967,3.95995-4.97998c0-3.65967-0.17969-4.85938-6.41893-11.03955
			c-3.83984-3.83984-7.02051-7.31934-7.02051-13.19922c0-7.07959,3.2998-10.13965,9.83984-10.13965
			c3.24022,0,5.58006,1.08008,7.01952,2.39991c1.02051,0.95996,1.74023,2.45996,1.74023,5.51953v4.08008h-5.63965v-3.41992
			c0-2.45996-1.02051-3.8999-3.36034-3.8999c-2.45996,0-3.59961,1.37988-3.59961,4.73975c0,2.93994,0.60059,4.74023,6.1201,10.5
			c5.87988,6.11963,6.95898,8.21924,6.95898,13.43945c0,6.7793-2.63965,10.6792-9.77928,10.6792
			c-5.51953,0-9.2998-2.33984-9.2998-7.73975V93.2603z"/>
		<path class="st1" d="M281.48352,62.48149h20.39844v5.04004h-7.19922v38.27832h-6V67.52153h-7.19922V62.48149z"/>
		<path class="st1" d="M307.46204,62.48149h6V81.0811h7.97949V62.48149h6v43.31836h-6v-19.6792h-7.97949v19.6792h-6V62.48149z"/>
		<path class="st1" d="M334.88196,62.48149h16.31934v5.04004h-10.31934V81.0811h9.71973v5.03955h-9.71973v14.63916h10.31934v5.04004
			h-16.31934V62.48149z"/>
		<path class="st1" d="M384.92004,73.94096v-2.21973c0-3.06006-1.5-4.91992-3.83984-4.91992
			c-2.75977,0-4.13965,2.52002-4.13965,7.13965v21.83936c0,3.47998,1.67969,5.69971,4.13965,5.69971
			c1.67969,0,3.05957-0.23975,3.83984-0.41992V88.34038h-3.95996v-5.03955h9.95996v21.7793
			c-2.33984,0.53955-6.47949,1.07959-9.89941,1.07959c-7.62012,0-10.08008-4.01953-10.08008-10.73926V73.52104
			c0-8.09961,2.45996-11.39942,10.2002-11.39942c6.41895,0,9.7793,2.33985,9.7793,7.85987v3.95947H384.92004z"/>
		<path class="st1" d="M418.51965,96.02007c0,5.04004-1.97949,10.13965-10.13965,10.13965
			c-8.21973,0-10.19922-5.09961-10.19922-10.13965V62.48149h6v34.5586c0,2.93994,1.0791,4.43994,4.19922,4.43994
			c3.06055,0,4.13965-1.5,4.13965-4.43994v-34.5586h6V96.02007z"/>
		<path class="st1" d="M425.7804,62.48149h8.28027l7.0791,35.99854h0.12012V62.48149h5.63965v43.31836h-8.63965l-7.0791-36.9585
			h-0.12012v36.9585h-5.28027V62.48149z"/>
		<path class="st1" d="M453.67981,93.2603h6v3.54004c0,2.87988,1.08008,4.67969,3.48047,4.67969
			c3.17969,0,3.95898-2.15967,3.95898-4.97998c0-3.65967-0.17969-4.85938-6.41895-11.03955
			c-3.83984-3.83984-7.02051-7.31934-7.02051-13.19922c0-7.07959,3.2998-10.13965,9.83984-10.13965
			c3.24023,0,5.58008,1.08008,7.01953,2.39991c1.02051,0.95996,1.74023,2.45996,1.74023,5.51953v4.08008h-5.63965v-3.41992
			c0-2.45996-1.02051-3.8999-3.36035-3.8999c-2.45996,0-3.59961,1.37988-3.59961,4.73975c0,2.93994,0.59961,4.74023,6.12012,10.5
			c5.87988,6.11963,6.95996,8.21924,6.95996,13.43945c0,6.7793-2.64062,10.6792-9.78027,10.6792
			c-5.51953,0-9.2998-2.33984-9.2998-7.73975V93.2603z"/>
		<path class="st1" d="M479.53918,62.48149h6V81.0811h7.97949V62.48149h6v43.31836h-6v-19.6792h-7.97949v19.6792h-6V62.48149z"/>
		<path class="st1" d="M506.77942,73.52104c0-6.05957,1.97949-11.39942,10.13965-11.39942
			c7.73926,0,10.19922,4.02002,10.19922,10.73975V94.7603c0,6.05957-1.97949,11.39941-10.19922,11.39941
			c-7.67969,0-10.13965-4.01953-10.13965-10.73926V73.52104z M512.77942,95.78032c0,3.71973,1.67969,5.69971,4.13965,5.69971
			c2.51953,0,4.19922-1.97998,4.19922-5.69971V73.04106c0-4.25977-1.43945-6.23975-4.19922-6.23975
			c-2.7002,0-4.13965,1.97998-4.13965,6.23975V95.78032z"/>
		<path class="st1" d="M531.79993,62.48149h20.39844v5.04004h-7.19922v38.27832h-6V67.52153h-7.19922V62.48149z"/>
		<path class="st1" d="M557.11829,93.2603h6v3.54004c0,2.87988,1.08008,4.67969,3.47949,4.67969
			c3.18066,0,3.95996-2.15967,3.95996-4.97998c0-3.65967-0.17969-4.85938-6.41895-11.03955
			c-3.83984-3.83984-7.02051-7.31934-7.02051-13.19922c0-7.07959,3.2998-10.13965,9.83984-10.13965
			c3.24023,0,5.58008,1.08008,7.01953,2.39991c1.02051,0.95996,1.74023,2.45996,1.74023,5.51953v4.08008h-5.63965v-3.41992
			c0-2.45996-1.02051-3.8999-3.36035-3.8999c-2.45996,0-3.59961,1.37988-3.59961,4.73975c0,2.93994,0.60059,4.74023,6.12012,10.5
			c5.87988,6.11963,6.95898,8.21924,6.95898,13.43945c0,6.7793-2.63965,10.6792-9.7793,10.6792
			c-5.51953,0-9.2998-2.33984-9.2998-7.73975V93.2603z"/>
		<path class="st0" d="M264.50208,149.47026c0-9.16846,0-17.90527,11.95312-17.90527s11.95312,8.73682,11.95312,17.90527
			c0,9.07275,0,17.90576-11.95312,17.90576S264.50208,158.54301,264.50208,149.47026z M281.0636,149.47026
			c0-8.88086-0.52832-12.72119-4.6084-12.72119c-4.08105,0-4.6084,3.84033-4.6084,12.72119s0.52734,12.72119,4.6084,12.72119
			C280.53528,162.19145,281.0636,158.35112,281.0636,149.47026z"/>
		<path class="st0" d="M303.67004,166.79985h-7.24902v-34.65918h13.39355c4.94434,0,8.1123,3.16846,8.1123,9.07275
			c0,4.4165-1.72754,7.729-6.43262,8.49707v0.0957c1.58496,0.19238,6.28906,0.57617,6.28906,6.81689
			c0,2.20801,0.14355,8.73682,0.81641,10.17676h-7.10547c-0.95996-2.1123-0.76758-4.46436-0.76758-6.7207
			c0-4.12842,0.38379-7.63232-5.18457-7.63232h-1.87207V166.79985z M303.67004,147.11821h3.21582
			c2.88086,0,3.69629-2.88037,3.69629-5.08838c0-3.3125-1.3916-4.56055-3.69629-4.56055h-3.21582V147.11821z"/>
		<path class="st2" d="M50.96547,184.48149h20.39941v5.04004h-7.19971v38.27832h-6v-38.27832h-7.19971V184.48149z"/>
		<path class="st2" d="M80.12513,184.48149h6.95947l8.81982,43.31836h-6l-1.97949-11.03955h-9.35986l-1.97998,11.03955h-5.99951
			L80.12513,184.48149z M79.46497,211.72075h7.61963l-3.71973-20.87939h-0.12012L79.46497,211.72075z"/>
		<path class="st2" d="M101.78431,184.48149h6v19.73926h0.12012l9.47949-19.73926h5.99951l-10.07959,20.33936l10.7998,22.979
			h-6.71973l-9.47949-21.65918h-0.12012v21.65918h-6V184.48149z"/>
		<path class="st2" d="M129.20424,184.48149h16.31934v5.04004h-10.31934v13.55957h9.71973v5.03955h-9.71973v14.63916h10.31934
			v5.04004h-16.31934V184.48149z"/>
		<path class="st2" d="M150.44398,215.2603h5.99951v3.54004c0,2.87988,1.08008,4.67969,3.47998,4.67969
			c3.17969,0,3.95996-2.15967,3.95996-4.97998c0-3.65967-0.18018-4.85938-6.41992-11.03955
			c-3.83984-3.83984-7.01953-7.31934-7.01953-13.19922c0-7.07959,3.2998-10.13965,9.83936-10.13965
			c3.24023,0,5.58008,1.08008,7.02002,2.3999c1.02002,0.95996,1.73975,2.45996,1.73975,5.51953v4.08008h-5.63965v-3.41992
			c0-2.45996-1.02002-3.8999-3.35986-3.8999c-2.45996,0-3.6001,1.37988-3.6001,4.73975c0,2.93994,0.6001,4.74023,6.12012,10.5
			c5.87939,6.11963,6.95947,8.21924,6.95947,13.43945c0,6.7793-2.64014,10.6792-9.77979,10.6792
			c-5.51953,0-9.29932-2.33984-9.29932-7.73975V215.2603z"/>
		<path class="st2" d="M186.38344,184.48149h20.39941v5.04004h-7.19971v38.27832h-6v-38.27832h-7.19971V184.48149z"/>
		<path class="st2" d="M212.36244,184.48149h6v18.59961h7.97949v-18.59961h6v43.31836h-6v-19.6792h-7.97949v19.6792h-6V184.48149z"
			/>
		<path class="st2" d="M239.78236,184.48149h16.31932v5.04004h-10.31932v13.55957h9.71973v5.03955h-9.71973v14.63916h10.31932
			v5.04004h-16.31932V184.48149z"/>
		<path class="st2" d="M275.66125,195.52104c0-6.05957,1.97949-11.39941,10.13965-11.39941
			c7.73926,0,10.19922,4.02002,10.19922,10.73975v21.89893c0,6.05957-1.97949,11.39941-10.19922,11.39941
			c-7.67969,0-10.13965-4.01953-10.13965-10.73926V195.52104z M281.66125,217.78032c0,3.71973,1.67969,5.69971,4.13965,5.69971
			c2.51953,0,4.19922-1.97998,4.19922-5.69971v-22.73926c0-4.25977-1.43945-6.23975-4.19922-6.23975
			c-2.7002,0-4.13965,1.97998-4.13965,6.23975V217.78032z"/>
		<path class="st2" d="M300.68176,184.48149h20.39844v5.04004h-7.19922v38.27832h-6v-38.27832h-7.19922V184.48149z"/>
		<path class="st2" d="M326.66028,184.48149h6v18.59961h7.97949v-18.59961h6v43.31836h-6v-19.6792h-7.97949v19.6792h-6V184.48149z"
			/>
		<path class="st2" d="M354.0802,184.48149h16.31934v5.04004H360.0802v13.55957h9.71973v5.03955h-9.71973v14.63916h10.31934v5.04004
			H354.0802V184.48149z"/>
		<path class="st2" d="M375.97961,184.48149h9.2998c8.75977,0,9.65918,2.33984,9.65918,11.81982
			c0,5.81982-0.7793,8.33936-5.69922,9.83936v0.12012c4.08008,0.41992,5.45996,2.52002,5.45996,6.59961v9.41992
			c0,1.55957,0,3.71973,0.35938,5.51953h-5.63965c-0.59961-1.08008-0.71973-2.16016-0.71973-3.8999v-9.77979
			c0-4.07959-0.71973-5.15967-4.67969-5.15967h-2.04004v18.83936h-6V184.48149z M381.97961,203.92094h1.55957
			c4.74023,0,5.40039-0.8999,5.40039-7.37988c0-6.41992-0.36035-7.01953-4.08008-7.01953h-2.87988V203.92094z"/>
		<path class="st2" d="M416.47864,184.48149h9.89941c8.16016,0,9.71973,2.22021,9.71973,12.23975
			s-1.55957,12.23926-9.71973,12.23926h-3.89941v18.83936h-6V184.48149z M422.47864,203.92094h3.12012
			c4.0791,0,4.49902-0.66016,4.49902-7.19971c0-6.54004-0.41992-7.19971-4.49902-7.19971h-3.12012V203.92094z"/>
		<path class="st2" d="M446.35852,184.48149h6.95996l8.81934,43.31836h-5.99902l-1.98047-11.03955h-9.35938l-1.97949,11.03955h-6
			L446.35852,184.48149z M445.69934,211.72075h7.61914l-3.71973-20.87939h-0.12012L445.69934,211.72075z"/>
		<path class="st2" d="M461.3595,184.48149h20.39844v5.04004h-7.19922v38.27832h-6v-38.27832h-7.19922V184.48149z"/>
		<path class="st2" d="M487.33801,184.48149h6v18.59961h7.97949v-18.59961h6v43.31836h-6v-19.6792h-7.97949v19.6792h-6V184.48149z"
			/>
		<path class="st2" d="M519.43762,210.82036c0-3.95947,0.54004-5.99951,2.2207-10.13965l1.25977-2.87988
			c1.19922-2.81982,1.25977-3.41943,1.25977-6.41943c0-2.33984-0.41992-3.2998-2.09961-3.2998
			c-1.5,0-1.98047,1.25977-1.98047,2.93994v3.83984h-5.63965v-3.83984c0-5.21973,2.7002-6.8999,7.62012-6.8999
			c5.93945,0,7.73926,2.45996,7.73926,8.15967c0,4.43994-0.59961,5.87988-1.5,7.7998l-1.86035,3.71973
			c-1.67969,3.2998-2.33984,5.33984-2.33984,9.2998v4.91943h-4.67969V210.82036z M518.59778,221.79985h6.36035v6h-6.36035V221.79985
			z"/>
	</g>
</g>
</svg>
