<?xml version="1.0" encoding="utf-8"?>
<!-- Generator: Adobe Illustrator 23.0.3, SVG Export Plug-In . SVG Version: 6.00 Build 0)  -->
<svg version="1.1" id="Layer_1" xmlns="http://www.w3.org/2000/svg" xmlns:xlink="http://www.w3.org/1999/xlink" x="0px" y="0px"
	 viewBox="0 0 617 464.44473" style="enable-background:new 0 0 617 464.44473;" xml:space="preserve">
<style type="text/css">
	.st0{fill:#BABCBE;}
	.st1{fill:#BD1E2D;}
</style>
<g id="w-text">
</g>
<g>
	<path class="st0" d="M47.59068,85.61426L7.91637,8.55127H56.244l16.3269,49.4707h0.32654l16.3269-49.4707h44.73572
		L94.28575,85.61426v40.81738H47.59068V85.61426z"/>
	<path class="st0" d="M190.28392,5.44922c40.65393,0,60.89929,25.30664,60.89929,62.04248
		c0,36.73535-20.24536,62.04199-60.89929,62.04199s-60.89929-25.30664-60.89929-62.04199
		C129.38463,30.75586,149.62999,5.44922,190.28392,5.44922z M190.28392,98.83936c7.18384,0,12.57166-4.08203,12.57166-31.34766
		c0-26.61279-5.06128-31.34766-12.57166-31.34766s-12.57166,4.73486-12.57166,31.34766
		C177.71227,94.75732,183.10008,98.83936,190.28392,98.83936z"/>
	<path class="st0" d="M374.77133,86.92041c0,28.40869-20.40869,42.61328-56.00122,42.61328
		c-35.59277,0-56.00134-14.20459-56.00134-42.61328V8.55127h46.69495v76.41016c0,9.30615,4.4082,12.89795,9.3064,12.89795
		c4.89795,0,9.30627-3.5918,9.30627-12.89795V8.55127h46.69495V86.92041z"/>
	<path class="st0" d="M124.65392,201.20459c0,16.16357-6.53076,27.91895-16.65332,35.59277
		c-10.1228,7.51025-23.8374,11.10205-38.53149,11.10205c-41.30713,0-60.40967-25.14355-60.40967-62.53223
		c-1.14282-36.73535,20.73523-61.55225,60.57288-61.55225c29.71497,0,54.8584,12.08203,55.02161,46.69482H81.87755
		c-0.65308-13.3877-5.55127-16-11.26562-16c-12.08191,0-13.22485,12.4082-13.22485,31.34766
		c0,17.95947,0.97974,31.34766,12.73511,31.34766c6.04089,0,10.12256-3.59229,10.77563-16.00049H124.65392z"/>
	<path class="st0" d="M203.67076,201.36768h-19.91895v43.42969h-46.69482V126.91699h46.69482v39.83789h19.91895v-39.83789h46.69482
		v117.88037h-46.69482V201.36768z"/>
	<path class="st0" d="M323.66684,123.81494c40.65405,0,60.89941,25.30664,60.89941,62.04248
		c0,36.73535-20.24536,62.04199-60.89941,62.04199s-60.89941-25.30664-60.89941-62.04199
		C262.76743,149.12158,283.01279,123.81494,323.66684,123.81494z M323.66684,217.20508
		c7.18384,0,12.57178-4.08203,12.57178-31.34766c0-26.61328-5.0614-31.34766-12.57178-31.34766s-12.57178,4.73438-12.57178,31.34766
		C311.09506,213.12305,316.483,217.20508,323.66684,217.20508z"/>
	<path class="st0" d="M457.8674,160.38721c-0.16321-7.34717-4.245-9.7959-10.28601-9.7959
		c-7.51025,0-10.77563,3.26514-10.77563,6.85693c0,4.24512,2.77551,6.04102,7.67358,7.51074
		c8.97974,2.6123,25.46997,5.87744,37.38867,10.93896c14.85742,6.2041,21.38818,16.81641,21.38818,31.021
		c0,28.89844-23.51074,40.98047-56.81763,40.98047c-28.40881,0-54.53186-8.81641-54.53186-39.51123h44.73572
		c0,3.26562,0.65308,6.53076,2.44897,8.97998c1.79602,2.28564,4.73486,3.75537,9.14307,3.75537
		c6.85742,0,11.26562-4.40869,11.26562-9.6333c0-4.4082-3.42871-6.69385-7.83691-8l-33.14355-9.7959
		c-18.12292-5.38818-24.49048-16.32715-24.49048-31.51123c0-24.49023,19.75562-38.36816,54.20532-38.36816
		c29.38843,0,51.42981,9.14307,51.42981,36.57227H457.8674z"/>
	<path class="st0" d="M514.84143,126.91699h89.63464v30.69482h-44.89905v12.57178h41.47046v30.69434h-41.47046v13.22461h46.36841
		v30.69482h-91.104V126.91699z"/>
	<path class="st0" d="M37.14171,276.95654H8.0797v-31.67432h104.81885v31.67432H83.83653v86.20605H37.14171V276.95654z"/>
	<path class="st0" d="M175.42735,242.18018c40.65405,0,60.89941,25.30664,60.89941,62.04248
		c0,36.73535-20.24536,62.04199-60.89941,62.04199s-60.89941-25.30664-60.89941-62.04199
		C114.52794,267.48682,134.7733,242.18018,175.42735,242.18018z M175.42735,335.57031c7.18384,0,12.57178-4.08203,12.57178-31.34766
		c0-26.61328-5.0614-31.34766-12.57178-31.34766s-12.57178,4.73438-12.57178,31.34766
		C162.85558,331.48828,168.24352,335.57031,175.42735,335.57031z"/>
	<path class="st0" d="M239.58629,329.5293h39.51122v33.6333h-39.51122V329.5293z"/>
	<path class="st0" d="M297.05307,329.5293h39.51123v33.6333h-39.51123V329.5293z"/>
	<path class="st0" d="M354.51987,329.5293h39.51123v33.6333h-39.51123V329.5293z"/>
</g>
<g>
	<g>
		<path class="st1" d="M45.40527,397.74316h6.95996l8.81934,43.31836h-5.99902l-1.98047-11.03906H43.8457l-1.97949,11.03906h-6
			L45.40527,397.74316z M44.74609,424.98242h7.61914l-3.71973-20.87891h-0.12012L44.74609,424.98242z"/>
		<path class="st1" d="M67.06445,397.74316h9.89941c8.16016,0,9.71973,2.2207,9.71973,12.24023s-1.55957,12.23926-9.71973,12.23926
			h-3.89941v18.83887h-6V397.74316z M73.06445,417.18262h3.12012c4.0791,0,4.5-0.66016,4.5-7.19922
			c0-6.54004-0.4209-7.2002-4.5-7.2002h-3.12012V417.18262z"/>
		<path class="st1" d="M93.4043,397.74316h9.89941c8.16016,0,9.71973,2.2207,9.71973,12.24023s-1.55957,12.23926-9.71973,12.23926
			H99.4043v18.83887h-6V397.74316z M99.4043,417.18262h3.12012c4.0791,0,4.5-0.66016,4.5-7.19922
			c0-6.54004-0.4209-7.2002-4.5-7.2002H99.4043V417.18262z"/>
		<path class="st1" d="M119.74414,397.74316h9.2998c8.75977,0,9.65918,2.33984,9.65918,11.82031
			c0,5.81934-0.7793,8.33887-5.69922,9.83887v0.12012c4.08008,0.41992,5.45996,2.52051,5.45996,6.59961v9.41992
			c0,1.55957,0,3.71973,0.35938,5.51953h-5.63965c-0.59961-1.08008-0.71973-2.16016-0.71973-3.89941v-9.78027
			c0-4.0791-0.71973-5.15918-4.67969-5.15918h-2.04004v18.83887h-6V397.74316z M125.74414,417.18262h1.55957
			c4.74023,0,5.40039-0.89941,5.40039-7.37988c0-6.41992-0.36035-7.01953-4.08008-7.01953h-2.87988V417.18262z"/>
		<path class="st1" d="M145.9043,408.7832c0-6.05957,1.97949-11.39941,10.13965-11.39941
			c7.73926,0,10.19922,4.01953,10.19922,10.73926v21.89941c0,6.05957-1.97949,11.39941-10.19922,11.39941
			c-7.67969,0-10.13965-4.01953-10.13965-10.73926V408.7832z M151.9043,431.04199c0,3.71973,1.67969,5.7002,4.13965,5.7002
			c2.51953,0,4.19922-1.98047,4.19922-5.7002v-22.73926c0-4.25977-1.43945-6.23926-4.19922-6.23926
			c-2.7002,0-4.13965,1.97949-4.13965,6.23926V431.04199z"/>
		<path class="st1" d="M180.4043,397.74316h6.95996l8.81934,43.31836h-5.99902l-1.98047-11.03906h-9.35938l-1.97949,11.03906h-6
			L180.4043,397.74316z M179.74512,424.98242h7.61914l-3.71973-20.87891h-0.12012L179.74512,424.98242z"/>
		<path class="st1" d="M201.10352,408.7832c0-6.05957,1.98047-11.39941,10.13965-11.39941c5.94043,0,8.7002,3,8.7002,7.85938
			v4.32031h-5.63965v-3c0-2.75977-0.95996-4.5-3.48047-4.5c-3.11914,0-3.71973,2.21973-3.71973,7.43945v21.23926
			c0,5.09961,1.62012,6,3.54004,6c2.21973,0,3.66016-1.56055,3.66016-5.16016v-3h5.63965v4.7998
			c0,4.55957-1.86035,8.04004-8.82031,8.04004c-7.55957,0-10.01953-4.01953-10.01953-10.73926V408.7832z"/>
		<path class="st1" d="M225.88281,397.74316h6v18.59961h7.97949v-18.59961h6v43.31836h-6v-19.67871h-7.97949v19.67871h-6V397.74316z
			"/>
		<path class="st1" d="M263.38379,397.74316h20.39844v5.04004h-7.19922v38.27832h-6V402.7832h-7.19922V397.74316z"/>
		<path class="st1" d="M289.3623,397.74316h6v18.59961h7.97949v-18.59961h6v43.31836h-6v-19.67871h-7.97949v19.67871h-6V397.74316z"
			/>
		<path class="st1" d="M316.78223,397.74316h16.31934v5.04004h-10.31934v13.55957h9.71973v5.04004h-9.71973v14.63867h10.31934
			v5.04004h-16.31934V397.74316z"/>
		<path class="st1" d="M352.84082,397.74316h6v18.59961h7.97949v-18.59961h6v43.31836h-6v-19.67871h-7.97949v19.67871h-6V397.74316z
			"/>
		<path class="st1" d="M400.41992,431.28223c0,5.04004-1.97949,10.13965-10.13965,10.13965
			c-8.21973,0-10.19922-5.09961-10.19922-10.13965v-33.53906h6v34.55859c0,2.94043,1.08008,4.44043,4.19922,4.44043
			c3.06055,0,4.13965-1.5,4.13965-4.44043v-34.55859h6V431.28223z"/>
		<path class="st1" d="M407.68066,397.74316h8.28027l7.0791,35.99902h0.12012v-35.99902h5.63965v43.31836h-8.63965l-7.0791-36.95801
			h-0.12012v36.95801h-5.28027V397.74316z"/>
		<path class="st1" d="M434.38086,397.74316h20.39844v5.04004h-7.19922v38.27832h-6V402.7832h-7.19922V397.74316z"/>
		<path class="st1" d="M459.69922,428.52246h6v3.54004c0,2.87988,1.08008,4.67969,3.47949,4.67969
			c3.18066,0,3.95996-2.16016,3.95996-4.98047c0-3.65918-0.17969-4.85938-6.41895-11.03906
			c-3.83984-3.83984-7.02051-7.31934-7.02051-13.19922c0-7.08008,3.2998-10.13965,9.83984-10.13965
			c3.24023,0,5.58008,1.08008,7.01953,2.39941c1.02051,0.95996,1.74023,2.45996,1.74023,5.51953v4.08008h-5.63965v-3.41992
			c0-2.45996-1.02051-3.89941-3.36035-3.89941c-2.45996,0-3.59961,1.37988-3.59961,4.73926c0,2.94043,0.60059,4.74023,6.12012,10.5
			c5.87988,6.12012,6.95898,8.21973,6.95898,13.43945c0,6.7793-2.63965,10.67969-9.7793,10.67969
			c-5.51953,0-9.2998-2.33984-9.2998-7.74023V428.52246z"/>
		<path class="st1" d="M485.55859,397.74316h9.54004l5.51953,32.99902h0.12012l5.51953-32.99902h9.2998v43.31836h-5.63965v-38.99805
			h-0.12012l-6.12012,38.99805h-5.99902l-6.71973-38.99805h-0.12012v38.99805h-5.28027V397.74316z"/>
		<path class="st1" d="M530.97754,397.74316h6.95996l8.81934,43.31836h-5.99902l-1.98047-11.03906h-9.35938l-1.97949,11.03906h-6
			L530.97754,397.74316z M530.31836,424.98242h7.61914l-3.71973-20.87891h-0.12012L530.31836,424.98242z"/>
		<path class="st1" d="M552.63672,397.74316h8.28027l7.0791,35.99902h0.12012v-35.99902h5.63965v43.31836h-8.63965l-7.0791-36.95801
			h-0.12012v36.95801h-5.28027V397.74316z"/>
	</g>
</g>
</svg>
