<?xml version="1.0" encoding="utf-8"?>
<!-- Generator: Adobe Illustrator 23.0.3, SVG Export Plug-In . SVG Version: 6.00 Build 0)  -->
<svg version="1.1" xmlns="http://www.w3.org/2000/svg" xmlns:xlink="http://www.w3.org/1999/xlink" x="0px" y="0px"
	 viewBox="0 0 613.97003 464.44473" style="enable-background:new 0 0 613.97003 464.44473;" xml:space="preserve">
<style type="text/css">
	.st0{fill:#BABCBE;}
	.st1{fill:#BD202F;}
</style>
<g id="w-text">
</g>
<g id="w-title">
	<g>
		<g>
			<path class="st0" d="M47.05849,94.40118L7.38418,17.33819h48.32764l16.3269,49.4707h0.32654l16.3269-49.4707h44.73571
				L93.75356,94.40118v40.81738H47.05849V94.40118z"/>
			<path class="st0" d="M189.75172,14.23614c40.65393,0,60.89929,25.30664,60.89929,62.04248
				c0,36.73535-20.24536,62.04198-60.89929,62.04198s-60.89929-25.30663-60.89929-62.04198
				C128.85243,39.54278,149.09779,14.23614,189.75172,14.23614z M189.75172,107.62627c7.18384,0,12.57166-4.08203,12.57166-31.34766
				c0-26.61279-5.06128-31.34766-12.57166-31.34766s-12.57166,4.73486-12.57166,31.34766
				C177.18007,103.54424,182.56789,107.62627,189.75172,107.62627z"/>
			<path class="st0" d="M374.23917,95.70733c0,28.40869-20.40869,42.61327-56.00122,42.61327
				c-35.59277,0-56.00134-14.20458-56.00134-42.61327V17.33819h46.69495v76.41016c0,9.30615,4.4082,12.89795,9.3064,12.89795
				c4.89795,0,9.30627-3.5918,9.30627-12.89795V17.33819h46.69495V95.70733z"/>
			<path class="st0" d="M124.12173,209.9915c0,16.16357-6.53076,27.91895-16.65332,35.59277
				c-10.1228,7.51025-23.8374,11.10207-38.53149,11.10207c-41.30713,0-60.40967-25.14357-60.40967-62.53224
				c-1.14282-36.73535,20.73523-61.55225,60.57288-61.55225c29.71497,0,54.8584,12.08203,55.02161,46.69482H81.34536
				c-0.65308-13.3877-5.55127-16-11.26562-16c-12.08191,0-13.22485,12.4082-13.22485,31.34766
				c0,17.95947,0.97974,31.34766,12.73511,31.34766c6.04089,0,10.12256-3.59229,10.77563-16.00049H124.12173z"/>
			<path class="st0" d="M203.13857,210.15459h-19.91895v43.42969H136.5248V135.7039h46.69482v39.83789h19.91895V135.7039h46.69482
				v117.88037h-46.69482V210.15459z"/>
			<path class="st0" d="M323.13467,132.60185c40.65405,0,60.89941,25.30664,60.89941,62.04248
				c0,36.73535-20.24536,62.04201-60.89941,62.04201s-60.89941-25.30666-60.89941-62.04201
				C262.23526,157.90849,282.48062,132.60185,323.13467,132.60185z M323.13467,225.99199
				c7.18384,0,12.57178-4.08203,12.57178-31.34766c0-26.61328-5.0614-31.34766-12.57178-31.34766
				s-12.57178,4.73438-12.57178,31.34766C310.5629,221.90996,315.95084,225.99199,323.13467,225.99199z"/>
			<path class="st0" d="M457.33524,169.17412c-0.16321-7.34717-4.245-9.7959-10.28601-9.7959
				c-7.51025,0-10.77563,3.26514-10.77563,6.85693c0,4.24512,2.77551,6.04102,7.67358,7.51074
				c8.97974,2.6123,25.46997,5.87744,37.38867,10.93896c14.85742,6.2041,21.38818,16.81641,21.38818,31.021
				c0,28.89844-23.51074,40.98048-56.81763,40.98048c-28.40881,0-54.53186-8.81642-54.53186-39.51125h44.73572
				c0,3.26562,0.65308,6.53076,2.44897,8.97998c1.79602,2.28564,4.73486,3.75537,9.14307,3.75537
				c6.85742,0,11.26562-4.40869,11.26562-9.6333c0-4.4082-3.42871-6.69385-7.83691-8l-33.14355-9.7959
				c-18.12292-5.38818-24.49048-16.32715-24.49048-31.51123c0-24.49023,19.75562-38.36816,54.20532-38.36816
				c29.38843,0,51.42981,9.14307,51.42981,36.57227H457.33524z"/>
			<path class="st0" d="M514.3092,135.7039h89.63464v30.69482H559.0448v12.57178h41.47046v30.69434H559.0448v13.22461h46.36841
				v30.69482h-91.104V135.7039z"/>
			<path class="st0" d="M36.60952,285.74347H7.54751v-31.67433h104.81885v31.67433H83.30434v86.20605H36.60952V285.74347z"/>
			<path class="st0" d="M174.89516,250.96709c40.65405,0,60.89941,25.30666,60.89941,62.0425
				c0,36.73535-20.24536,62.04199-60.89941,62.04199s-60.89941-25.30664-60.89941-62.04199
				C113.99575,276.27374,134.2411,250.96709,174.89516,250.96709z M174.89516,344.35724
				c7.18384,0,12.57178-4.08203,12.57178-31.34766c0-26.61328-5.0614-31.34766-12.57178-31.34766
				s-12.57178,4.73438-12.57178,31.34766C162.32338,340.27521,167.71132,344.35724,174.89516,344.35724z"/>
			<path class="st0" d="M239.05409,338.31622h39.51125v33.6333h-39.51125V338.31622z"/>
			<path class="st0" d="M296.5209,338.31622h39.51123v33.6333H296.5209V338.31622z"/>
			<path class="st0" d="M353.9877,338.31622h39.51123v33.6333H353.9877V338.31622z"/>
		</g>
		<g>
			<g>
				<path class="st1" d="M50.87344,417.98984v-2.21973c0-3.06006-1.5-4.91992-3.83984-4.91992
					c-2.75977,0-4.13965,2.52002-4.13965,7.13965v21.83936c0,3.47998,1.67969,5.69971,4.13965,5.69971
					c1.67969,0,3.05957-0.23975,3.83984-0.41992v-12.71973h-3.95996v-5.03955h9.95996v21.7793
					c-2.33984,0.53955-6.47949,1.07959-9.89941,1.07959c-7.62012,0-10.08008-4.01953-10.08008-10.73926v-21.89941
					c0-8.09961,2.45996-11.39941,10.2002-11.39941c6.41895,0,9.7793,2.33984,9.7793,7.85986v3.95947H50.87344z"/>
				<path class="st1" d="M64.13418,417.56992c0-6.05957,1.97949-11.39941,10.13965-11.39941
					c7.73926,0,10.19922,4.02002,10.19922,10.73975v21.89893c0,6.05957-1.97949,11.39941-10.19922,11.39941
					c-7.67969,0-10.13965-4.01953-10.13965-10.73926V417.56992z M70.13418,439.82919c0,3.71973,1.67969,5.69971,4.13965,5.69971
					c2.51953,0,4.19922-1.97998,4.19922-5.69971v-22.73926c0-4.25977-1.43945-6.23975-4.19922-6.23975
					c-2.7002,0-4.13965,1.97998-4.13965,6.23975V439.82919z"/>
				<path class="st1" d="M101.81387,406.53036h20.39844v5.04004h-7.19922v38.27832h-6V411.5704h-7.19922V406.53036z"/>
				<path class="st1" d="M126.89394,417.56992c0-6.05957,1.9795-11.39941,10.13966-11.39941
					c7.73926,0,10.19922,4.02002,10.19922,10.73975v21.89893c0,6.05957-1.97949,11.39941-10.19922,11.39941
					c-7.67969,0-10.13966-4.01953-10.13966-10.73926V417.56992z M132.89395,439.82919c0,3.71973,1.67969,5.69971,4.13965,5.69971
					c2.51953,0,4.19922-1.97998,4.19922-5.69971v-22.73926c0-4.25977-1.43945-6.23975-4.19922-6.23975
					c-2.7002,0-4.13965,1.97998-4.13965,6.23975V439.82919z"/>
				<path class="st1" d="M152.33438,406.53036h6.17969l4.31934,35.63867h0.12012l4.7998-35.63867h8.16016l3.95996,35.63867h0.11914
					l5.16016-35.63867h5.63965l-7.7998,43.31836h-7.31934l-4.01953-36.23828h-0.12012l-5.09961,36.23828h-7.25977
					L152.33438,406.53036z"/>
				<path class="st1" d="M201.17227,406.53036h6.95996l8.81934,43.31836h-5.99902l-1.98047-11.03955h-9.35938l-1.97949,11.03955h-6
					L201.17227,406.53036z M200.51309,433.76962h7.61914l-3.71973-20.87939h-0.12012L200.51309,433.76962z"/>
				<path class="st1" d="M222.83145,406.53036h9.2998c8.75977,0,9.65918,2.33984,9.65918,11.81982
					c0,5.81982-0.7793,8.33936-5.69922,9.83936v0.12012c4.08008,0.41992,5.45996,2.52002,5.45996,6.59961v9.41992
					c0,1.55957,0,3.71973,0.35938,5.51953h-5.63965c-0.59961-1.08008-0.71973-2.16016-0.71973-3.8999v-9.77979
					c0-4.07959-0.71973-5.15967-4.67969-5.15967h-2.04004v18.83936h-6V406.53036z M228.83145,425.96982h1.55957
					c4.74023,0,5.40039-0.8999,5.40039-7.37988c0-6.41992-0.36035-7.01953-4.08008-7.01953h-2.87988V425.96982z"/>
				<path class="st1" d="M249.1713,406.53036h9.66016c9.71973,0,10.49902,3.24023,10.49902,15.83936v12.89941
					c0,11.09961-1.97949,14.57959-11.45898,14.57959h-8.7002V406.53036z M255.1713,444.80869h2.87988
					c4.43945,0,5.2793-2.33984,5.2793-9.7793v-14.87939c0-6.41992-0.65918-8.57959-5.75977-8.57959h-2.39941V444.80869z"/>
				<path class="st1" d="M275.93106,437.30917h6v3.54004c0,2.87988,1.08008,4.67969,3.47949,4.67969
					c3.18066,0,3.95996-2.15967,3.95996-4.97998c0-3.65967-0.17969-4.85938-6.41895-11.03955
					c-3.83984-3.83984-7.02051-7.31934-7.02051-13.19922c0-7.07959,3.2998-10.13965,9.83984-10.13965
					c3.24023,0,5.58008,1.08008,7.01953,2.3999c1.02051,0.95996,1.74023,2.45996,1.74023,5.51953v4.08008h-5.63965v-3.41992
					c0-2.45996-1.02051-3.8999-3.36035-3.8999c-2.45996,0-3.59961,1.37988-3.59961,4.73975c0,2.93994,0.60059,4.74023,6.12012,10.5
					c5.87988,6.11963,6.95898,8.21924,6.95898,13.43945c0,6.7793-2.63965,10.6792-9.7793,10.6792
					c-5.51953,0-9.2998-2.33984-9.2998-7.73975V437.30917z"/>
				<path class="st1" d="M311.87247,406.53036h20.39844v5.04004h-7.19922v38.27832h-6V411.5704h-7.19922V406.53036z"/>
				<path class="st1" d="M337.85098,406.53036h6v18.59961h7.97949v-18.59961h6v43.31836h-6v-19.6792h-7.97949v19.6792h-6V406.53036z
					"/>
				<path class="st1" d="M365.2709,406.53036h16.31934v5.04004H371.2709v13.55957h9.71973v5.03955h-9.71973v14.63916h10.31934
					v5.04004H365.2709V406.53036z"/>
				<path class="st1" d="M415.3085,417.98984v-2.21973c0-3.06006-1.5-4.91992-3.83984-4.91992
					c-2.75977,0-4.13965,2.52002-4.13965,7.13965v21.83936c0,3.47998,1.67969,5.69971,4.13965,5.69971
					c1.67969,0,3.05957-0.23975,3.83984-0.41992v-12.71973h-3.95996v-5.03955h9.95996v21.7793
					c-2.33984,0.53955-6.47949,1.07959-9.89941,1.07959c-7.62012,0-10.08008-4.01953-10.08008-10.73926v-21.89941
					c0-8.09961,2.45996-11.39941,10.2002-11.39941c6.41895,0,9.7793,2.33984,9.7793,7.85986v3.95947H415.3085z"/>
				<path class="st1" d="M448.90811,440.06894c0,5.04004-1.97949,10.13965-10.13965,10.13965
					c-8.21973,0-10.19922-5.09961-10.19922-10.13965v-33.53857h6v34.55859c0,2.93994,1.0791,4.43994,4.19922,4.43994
					c3.06055,0,4.13965-1.5,4.13965-4.43994v-34.55859h6V440.06894z"/>
				<path class="st1" d="M456.16885,406.53036h8.28027l7.0791,35.99854h0.12012v-35.99854h5.63965v43.31836h-8.63965
					l-7.0791-36.9585h-0.12012v36.9585h-5.28027V406.53036z"/>
				<path class="st1" d="M484.06827,437.30917h6v3.54004c0,2.87988,1.08008,4.67969,3.48047,4.67969
					c3.17969,0,3.95898-2.15967,3.95898-4.97998c0-3.65967-0.17969-4.85938-6.41895-11.03955
					c-3.83984-3.83984-7.02051-7.31934-7.02051-13.19922c0-7.07959,3.2998-10.13965,9.83984-10.13965
					c3.24023,0,5.58008,1.08008,7.01953,2.3999c1.02051,0.95996,1.74023,2.45996,1.74023,5.51953v4.08008h-5.63965v-3.41992
					c0-2.45996-1.02051-3.8999-3.36035-3.8999c-2.45996,0-3.59961,1.37988-3.59961,4.73975c0,2.93994,0.59961,4.74023,6.12012,10.5
					c5.87988,6.11963,6.95996,8.21924,6.95996,13.43945c0,6.7793-2.64062,10.6792-9.78027,10.6792
					c-5.51953,0-9.2998-2.33984-9.2998-7.73975V437.30917z"/>
				<path class="st1" d="M509.92764,406.53036h5.99997v18.59961h7.97949v-18.59961h6v43.31836h-6v-19.6792h-7.97949v19.6792
					h-5.99997V406.53036z"/>
				<path class="st1" d="M537.16785,417.56992c0-6.05957,1.97949-11.39941,10.13965-11.39941
					c7.73926,0,10.19922,4.02002,10.19922,10.73975v21.89893c0,6.05957-1.97949,11.39941-10.19922,11.39941
					c-7.67969,0-10.13965-4.01953-10.13965-10.73926V417.56992z M543.16785,439.82919c0,3.71973,1.67969,5.69971,4.13965,5.69971
					c2.51953,0,4.19922-1.97998,4.19922-5.69971v-22.73926c0-4.25977-1.43945-6.23975-4.19922-6.23975
					c-2.7002,0-4.13965,1.97998-4.13965,6.23975V439.82919z"/>
				<path class="st1" d="M562.18835,406.53036h20.39844v5.04004h-7.19922v38.27832h-6V411.5704h-7.19922V406.53036z"/>
				<path class="st1" d="M587.50671,437.30917h6v3.54004c0,2.87988,1.08008,4.67969,3.47949,4.67969
					c3.18066,0,3.95996-2.15967,3.95996-4.97998c0-3.65967-0.17969-4.85938-6.41895-11.03955
					c-3.83984-3.83984-7.02051-7.31934-7.02051-13.19922c0-7.07959,3.2998-10.13965,9.83984-10.13965
					c3.24023,0,5.58008,1.08008,7.01953,2.3999c1.02051,0.95996,1.74023,2.45996,1.74023,5.51953v4.08008h-5.63965v-3.41992
					c0-2.45996-1.02051-3.8999-3.36035-3.8999c-2.45996,0-3.59961,1.37988-3.59961,4.73975c0,2.93994,0.60059,4.74023,6.12012,10.5
					c5.87988,6.11963,6.95898,8.21924,6.95898,13.43945c0,6.7793-2.63965,10.6792-9.7793,10.6792
					c-5.51953,0-9.2998-2.33984-9.2998-7.73975V437.30917z"/>
			</g>
		</g>
	</g>
</g>
</svg>
