<?xml version="1.0" encoding="utf-8"?>
<!-- Generator: Adobe Illustrator 23.0.3, SVG Export Plug-In . SVG Version: 6.00 Build 0)  -->
<svg version="1.1" xmlns="http://www.w3.org/2000/svg" xmlns:xlink="http://www.w3.org/1999/xlink" x="0px" y="0px"
	 viewBox="0 0 75.62891 37.45444" style="enable-background:new 0 0 75.62891 37.45444;" xml:space="preserve">
<style type="text/css">
	.st0{fill:#4E4E4E;}
	.st1{fill:#C0282D;}
</style>
<g id="w-text">
</g>
<g id="w-title">
	<g>
		<path class="st0" d="M7.91885,6.08535c-0.10547-0.85449-0.70215-1.1709-1.36914-1.1709c-1.41602,0-1.84961,1.2998-1.84961,2.84473
			c0,0.51465,0.01172,2.64453,1.82617,2.64453c1.24023,0,1.36914-0.90137,1.41602-1.22852h2.43359
			c-0.01074,2.64453-2.70312,2.86719-3.80273,2.86719c-0.81934,0-2.27051-0.14062-3.20703-1.12402
			c-0.9248-0.98242-1.08887-2.3291-1.08887-3.20605c0-1.15918,0.26953-2.31738,1.06543-3.21875
			c0.86621-0.9834,1.97754-1.24023,3.20703-1.24023c1.36914,0,2.41016,0.32715,3.07812,1.0293
			c0.67871,0.72559,0.69043,1.48633,0.70215,1.80273H7.91885z"/>
		<path class="st0" d="M12.85245,4.36465c1.06445-1.07715,2.67969-1.16992,3.29981-1.16992
			c3.37109,0,4.28418,2.42188,4.28418,4.48242c0,3.37012-2.3877,4.40039-4.40039,4.40039
			c-2.24707,0-4.34277-1.24121-4.34277-4.38867C11.69327,7.12637,11.78702,5.4418,12.85245,4.36465z M16.05948,10.35684
			c1.67285,0,1.9541-1.54492,1.9541-2.71484c0-1.18262-0.28125-1.76758-0.53809-2.1416
			c-0.33984-0.46875-0.88965-0.60938-1.4043-0.60938c-1.54492,0-1.9668,1.33496-1.9668,2.78613
			C14.1044,9.02285,14.50284,10.35684,16.05948,10.35684z"/>
		<path class="st0" d="M22.34952,3.42813h3.23047L28.43546,9.725l-0.02344-6.29687h2.04785v8.4502h-3.16016l-2.91406-6.56543
			l0.02344,6.56543h-2.05957V3.42813z"/>
		<path class="st0" d="M34.59756,5.10196h-2.57422V3.42813h7.57227v1.67383h-2.63379v6.77637h-2.36426V5.10196z"/>
		<path class="st0" d="M41.00479,3.42813h2.41113v8.4502h-2.41113V3.42813z"/>
		<path class="st0" d="M45.57217,3.42813h3.23047L51.65811,9.725l-0.02344-6.29687h2.04785v8.4502h-3.16016l-2.91406-6.56543
			l0.02344,6.56543h-2.05957V3.42813z"/>
		<path class="st0" d="M58.33585,3.42813v5.02148c0,0.45605,0.03516,0.92383,0.26855,1.27539
			c0.31641,0.46777,0.86621,0.69043,1.43945,0.69043c1.48633,0,1.68555-1.20508,1.68555-2.04785V3.42813h2.28223v4.89258
			c0,0.93652-0.12891,1.9541-0.65527,2.57422c-0.81934,1.00684-2.3291,1.20605-3.39355,1.20605
			c-3.99121,0-4.00293-2.48145-4.00293-3.8623l0.01172-4.81055H58.33585z"/>
		<path class="st0" d="M66.27725,3.45157h6.34277V5.0668h-4.02539v1.75586h3.79199v1.61523h-3.79199v1.80176h4.11914v1.63867
			h-6.43652V3.45157z"/>
	</g>
	<g>
		<path class="st1" d="M48.85282,23.67534c-0.00191,0.20203-0.0455,0.40262-0.13088,0.58573
			c-0.27488,0.58948-0.7391,1.03711-1.19785,1.49527c-3.14533,3.14131-6.28526,6.28803-9.41837,9.44152
			c-0.21243,0.21381-0.32008,0.22942-0.54202,0.006c-3.31607-3.33805-6.6397-6.66861-9.97036-9.9921
			c-0.34897-0.34822-0.54407-0.76755-0.71959-1.20501c-0.03266-0.08139-0.05852-0.16588-0.07468-0.25208
			c-0.00089-0.00475-0.00176-0.00948-0.00261-0.0142c-0.05111-0.28326-0.00443-0.57517,0.11628-0.83647
			c0.06843-0.14814,0.13593-0.29687,0.22187-0.43403c0.82547-1.31743,2.39414-1.48205,3.52133-0.35812
			c2.31309,2.30641,4.61946,4.61957,6.9201,6.93839c0.19849,0.20006,0.30473,0.21205,0.50902,0.00441
			c1.32276-1.34442,2.66008-2.6745,3.99257-4.00934c0.99454-0.9963,1.97869-2.00324,2.98615-2.9863
			c1.16314-1.13498,2.90635-0.81759,3.57358,0.62862C48.69847,22.82007,48.85798,23.12918,48.85282,23.67534z"/>
	</g>
</g>
</svg>
