<?xml version="1.0" encoding="utf-8"?>
<!-- Generator: Adobe Illustrator 23.0.3, SVG Export Plug-In . SVG Version: 6.00 Build 0)  -->
<svg version="1.1" xmlns="http://www.w3.org/2000/svg" xmlns:xlink="http://www.w3.org/1999/xlink" x="0px" y="0px"
	 viewBox="0 0 268.15097 32.57177" style="enable-background:new 0 0 268.15097 32.57177;" xml:space="preserve">
<style type="text/css">
	.st0{fill:#BD202F;}
	.st1{fill:#C0282D;}
</style>
<g id="w-text">
</g>
<g id="w-title">
	<g>
		<g>
			<g>
				<path class="st0" d="M41.9174,9.51925v-0.8877c0-1.22461-0.6001-1.96875-1.53613-1.96875
					c-1.104,0-1.65625,1.00879-1.65625,2.85645v8.73633c0,1.39258,0.67236,2.28027,1.65625,2.28027
					c0.67236,0,1.22412-0.0957,1.53613-0.16797v-5.08789h-1.58398v-2.0166h3.98438v8.71289
					c-0.93604,0.21582-2.59229,0.43164-3.96045,0.43164c-3.04834,0-4.03223-1.60742-4.03223-4.2959V9.35128
					c0-3.24023,0.98389-4.56055,4.08008-4.56055c2.56836,0,3.9126,0.93652,3.9126,3.14453v1.58398H41.9174z"/>
				<path class="st0" d="M47.22062,9.35128c0-2.42383,0.79199-4.56055,4.05664-4.56055c3.09619,0,4.08008,1.6084,4.08008,4.29688
					v8.76074c0,2.42383-0.79199,4.55957-4.08008,4.55957c-3.07227,0-4.05664-1.60742-4.05664-4.2959V9.35128z M49.62101,18.25557
					c0,1.48828,0.67188,2.28027,1.65625,2.28027c1.00781,0,1.68018-0.79199,1.68018-2.28027V9.15889
					c0-1.7041-0.57617-2.49609-1.68018-2.49609c-1.08008,0-1.65625,0.79199-1.65625,2.49609V18.25557z"/>
				<path class="st0" d="M62.29288,4.93526h8.16064v2.01562h-2.88037v15.31348h-2.3999V6.95089h-2.88037V4.93526z"/>
				<path class="st0" d="M72.32462,9.35128c0-2.42383,0.79199-4.56055,4.05664-4.56055c3.09619,0,4.08008,1.6084,4.08008,4.29688
					v8.76074c0,2.42383-0.79199,4.55957-4.08008,4.55957c-3.07227,0-4.05664-1.60742-4.05664-4.2959V9.35128z M74.72501,18.25557
					c0,1.48828,0.67188,2.28027,1.65625,2.28027c1.00781,0,1.68018-0.79199,1.68018-2.28027V9.15889
					c0-1.7041-0.57617-2.49609-1.68018-2.49609c-1.08008,0-1.65625,0.79199-1.65625,2.49609V18.25557z"/>
				<path class="st0" d="M82.50089,4.93526h2.47217l1.72803,14.25684h0.04834l1.91992-14.25684h3.26416l1.58447,14.25684h0.04785
					L95.6298,4.93526h2.25635l-3.12012,17.3291h-2.92822l-1.6084-14.49707h-0.04785l-2.04004,14.49707h-2.9043L82.50089,4.93526z"/>
				<path class="st0" d="M102.03751,4.93526h2.78418l3.52832,17.3291h-2.40039l-0.79199-4.41602H101.413l-0.79199,4.41602h-2.3999
					L102.03751,4.93526z M101.77335,15.83175h3.04834l-1.48828-8.35254h-0.04785L101.77335,15.83175z"/>
				<path class="st0" d="M110.7006,4.93526h3.72021c3.50439,0,3.86426,0.93555,3.86426,4.72754
					c0,2.3291-0.31201,3.33691-2.28027,3.93652v0.04785c1.63232,0.16895,2.18457,1.00879,2.18457,2.64062v3.76855
					c0,0.62402,0,1.48828,0.14355,2.20801h-2.25586c-0.24023-0.43164-0.28809-0.86426-0.28809-1.56055v-3.91211
					c0-1.63184-0.28809-2.06445-1.87207-2.06445h-0.81641v7.53711h-2.3999V4.93526z M113.1005,12.71163h0.62402
					c1.89648,0,2.16064-0.36035,2.16064-2.95215c0-2.56836-0.14404-2.80859-1.63232-2.80859h-1.15234V12.71163z"/>
				<path class="st0" d="M121.23624,4.93526h3.86426c3.88818,0,4.20019,1.2959,4.20019,6.33594v5.16113
					c0,4.43945-0.79199,5.83203-4.58447,5.83203h-3.47998V4.93526z M123.63615,20.24776h1.15234
					c1.77588,0,2.1123-0.93555,2.1123-3.91211V10.3835c0-2.56836-0.26416-3.43262-2.3042-3.43262h-0.96045V20.24776z"/>
				<path class="st0" d="M131.94034,17.24776h2.40039v1.41602c0,1.15234,0.43164,1.87207,1.39209,1.87207
					c1.27197,0,1.58398-0.86328,1.58398-1.99219c0-1.46387-0.07178-1.94336-2.56836-4.41602
					c-1.53613-1.53613-2.80811-2.92871-2.80811-5.28027c0-2.83203,1.32031-4.05664,3.93652-4.05664
					c1.2959,0,2.23193,0.43262,2.80811,0.95996c0.4082,0.38379,0.6958,0.98438,0.6958,2.20801v1.63281h-2.25586V8.22335
					c0-0.98438-0.4082-1.56055-1.34424-1.56055c-0.98389,0-1.43994,0.55273-1.43994,1.89648
					c0,1.17578,0.23975,1.89648,2.44824,4.2002c2.35205,2.44824,2.78418,3.28809,2.78418,5.37695
					c0,2.71191-1.05615,4.27148-3.9126,4.27148c-2.20801,0-3.72021-0.93555-3.72021-3.0957V17.24776z"/>
				<path class="st0" d="M146.31631,4.93526h8.16064v2.01562h-2.88037v15.31348h-2.3999V6.95089h-2.88037V4.93526z"/>
				<path class="st0" d="M156.70792,4.93526h2.3999v7.44043h3.19238V4.93526h2.40039v17.3291h-2.40039v-7.87305h-3.19238v7.87305
					h-2.3999V4.93526z"/>
				<path class="st0" d="M167.67618,4.93526h6.52832v2.01562h-4.12842v5.4248h3.88867v2.01562h-3.88867v5.85645h4.12842v2.0166
					h-6.52832V4.93526z"/>
				<path class="st0" d="M187.6918,9.51925v-0.8877c0-1.22461-0.6001-1.96875-1.53613-1.96875
					c-1.104,0-1.65625,1.00879-1.65625,2.85645v8.73633c0,1.39258,0.67236,2.28027,1.65625,2.28027
					c0.67236,0,1.22412-0.0957,1.53613-0.16797v-5.08789h-1.58398v-2.0166h3.98438v8.71289
					c-0.93604,0.21582-2.59229,0.43164-3.96045,0.43164c-3.04834,0-4.03223-1.60742-4.03223-4.2959V9.35128
					c0-3.24023,0.98389-4.56055,4.08008-4.56055c2.56836,0,3.9126,0.93652,3.9126,3.14453v1.58398H187.6918z"/>
				<path class="st0" d="M201.13174,18.35225c0,2.01562-0.79199,4.05566-4.05615,4.05566
					c-3.28857,0-4.08057-2.04004-4.08057-4.05566V4.93526h2.40039v13.8252c0,1.17578,0.43213,1.77539,1.68018,1.77539
					c1.22412,0,1.65625-0.59961,1.65625-1.77539V4.93526h2.3999V18.35225z"/>
				<path class="st0" d="M204.03506,4.93526h3.31201l2.83252,14.40039h0.04785V4.93526h2.25635v17.3291h-3.45654l-2.83203-14.78516
					h-0.04785v14.78516h-2.1123V4.93526z"/>
				<path class="st0" d="M215.19522,17.24776h2.40039v1.41602c0,1.15234,0.43164,1.87207,1.39209,1.87207
					c1.27197,0,1.58398-0.86328,1.58398-1.99219c0-1.46387-0.07178-1.94336-2.56836-4.41602
					c-1.53613-1.53613-2.80811-2.92871-2.80811-5.28027c0-2.83203,1.32031-4.05664,3.93652-4.05664
					c1.2959,0,2.23193,0.43262,2.80811,0.95996c0.4082,0.38379,0.6958,0.98438,0.6958,2.20801v1.63281h-2.25586V8.22335
					c0-0.98438-0.4082-1.56055-1.34424-1.56055c-0.98389,0-1.43994,0.55273-1.43994,1.89648
					c0,1.17578,0.23975,1.89648,2.44824,4.2002c2.35205,2.44824,2.78418,3.28809,2.78418,5.37695
					c0,2.71191-1.05615,4.27148-3.9126,4.27148c-2.20801,0-3.72021-0.93555-3.72021-3.0957V17.24776z"/>
				<path class="st0" d="M225.53897,4.93526h2.3999v7.44043h3.19238V4.93526h2.40039v17.3291h-2.40039v-7.87305h-3.19238v7.87305
					h-2.3999V4.93526z"/>
				<path class="st0" d="M236.43497,9.35128c0-2.42383,0.79199-4.56055,4.05664-4.56055c3.09619,0,4.08008,1.6084,4.08008,4.29688
					v8.76074c0,2.42383-0.79199,4.55957-4.08008,4.55957c-3.07227,0-4.05664-1.60742-4.05664-4.2959V9.35128z M238.83536,18.25557
					c0,1.48828,0.67188,2.28027,1.65625,2.28027c1.00781,0,1.68018-0.79199,1.68018-2.28027V9.15889
					c0-1.7041-0.57617-2.49609-1.68018-2.49609c-1.08008,0-1.65625,0.79199-1.65625,2.49609V18.25557z"/>
				<path class="st0" d="M246.44278,4.93526h8.16064v2.01562h-2.88037v15.31348h-2.3999V6.95089h-2.88037V4.93526z"/>
				<path class="st0" d="M256.57071,17.24776h2.40039v1.41602c0,1.15234,0.43213,1.87207,1.39209,1.87207
					c1.27197,0,1.58398-0.86328,1.58398-1.99219c0-1.46387-0.07178-1.94336-2.56836-4.41602
					c-1.53613-1.53613-2.80811-2.92871-2.80811-5.28027c0-2.83203,1.32031-4.05664,3.93652-4.05664
					c1.2959,0,2.23193,0.43262,2.80811,0.95996c0.4082,0.38379,0.69629,0.98438,0.69629,2.20801v1.63281h-2.25635V8.22335
					c0-0.98438-0.4082-1.56055-1.34424-1.56055c-0.98389,0-1.43994,0.55273-1.43994,1.89648
					c0,1.17578,0.23975,1.89648,2.44824,4.2002c2.35205,2.44824,2.78418,3.28809,2.78418,5.37695
					c0,2.71191-1.05615,4.27148-3.9126,4.27148c-2.20801,0-3.72021-0.93555-3.72021-3.0957V17.24776z"/>
				<path class="st0" d="M35.43693,25.26436v-1.2002h230.58984v1.2002H35.43693z"/>
			</g>
		</g>
		<g>
			<path class="st1" d="M17.74949,31.04043c-0.27004-0.00255-0.53816-0.06082-0.78292-0.17494
				c-0.78794-0.36741-1.38627-0.98793-1.99867-1.60112c-4.19886-4.20424-8.40497-8.40127-12.62012-12.58916
				c-0.28579-0.28394-0.30665-0.42784-0.00803-0.7245c4.46184-4.43246,8.91367-8.87503,13.35606-13.32699
				c0.46545-0.46646,1.02595-0.72723,1.61069-0.96185c0.10879-0.04365,0.22173-0.07822,0.33694-0.09983
				c0.00635-0.00119,0.01267-0.00235,0.01898-0.00349c0.37862-0.06832,0.76881-0.00592,1.11808,0.15543
				c0.19801,0.09147,0.39681,0.18169,0.58016,0.29657c1.76095,1.10337,1.981,3.20016,0.47869,4.70682
				c-3.08288,3.09182-6.1748,6.17466-9.27428,9.24984c-0.26742,0.26532-0.28344,0.40732-0.0059,0.68039
				c1.79703,1.76808,3.5749,3.55563,5.35913,5.33671c1.33172,1.32936,2.67765,2.64484,3.99167,3.99147
				c1.51708,1.55473,1.09284,3.88481-0.84025,4.77666C18.8927,30.83412,18.47952,31.04733,17.74949,31.04043z"/>
		</g>
	</g>
</g>
</svg>
