<?xml version="1.0" encoding="utf-8"?>
<!-- Generator: Adobe Illustrator 23.0.3, SVG Export Plug-In . SVG Version: 6.00 Build 0)  -->
<svg version="1.1" id="Layer_1" xmlns="http://www.w3.org/2000/svg" xmlns:xlink="http://www.w3.org/1999/xlink" x="0px" y="0px"
	 viewBox="0 0 258.86288 32.57177" style="enable-background:new 0 0 258.86288 32.57177;" xml:space="preserve">
<style type="text/css">
	.st0{fill:#BD1E2D;}
	.st1{fill:#C0272D;}
</style>
<g id="w-text">
</g>
<g>
	<g>
		<path class="st0" d="M39.99512,6.93555h2.78418l3.52832,17.3291h-2.40039l-0.79199-4.41602h-3.74463l-0.79199,4.41602h-2.3999
			L39.99512,6.93555z M39.73096,17.83203h3.04834l-1.48828-8.35254h-0.04785L39.73096,17.83203z"/>
		<path class="st0" d="M48.6582,6.93555h3.96045c3.26416,0,3.88818,0.8877,3.88818,4.89648
			c0,4.00781-0.62402,4.89551-3.88818,4.89551h-1.56055v7.53711h-2.3999V6.93555z M51.05811,14.71191h1.24854
			c1.63184,0,1.7998-0.26367,1.7998-2.87988s-0.16797-2.88086-1.7998-2.88086h-1.24854V14.71191z"/>
		<path class="st0" d="M59.19434,6.93555h3.96045c3.26416,0,3.88818,0.8877,3.88818,4.89648
			c0,4.00781-0.62402,4.89551-3.88818,4.89551h-1.56055v7.53711h-2.3999V6.93555z M61.59424,14.71191h1.24854
			c1.63184,0,1.7998-0.26367,1.7998-2.87988s-0.16797-2.88086-1.7998-2.88086h-1.24854V14.71191z"/>
		<path class="st0" d="M69.72998,6.93555h3.72021c3.50439,0,3.86426,0.93555,3.86426,4.72754
			c0,2.3291-0.31201,3.33691-2.28027,3.93652v0.04785c1.63232,0.16895,2.18457,1.00879,2.18457,2.64062v3.76855
			c0,0.62402,0,1.48828,0.14355,2.20801h-2.25586c-0.24023-0.43164-0.28809-0.86426-0.28809-1.56055v-3.91211
			c0-1.63184-0.28809-2.06445-1.87207-2.06445h-0.81641v7.53711h-2.3999V6.93555z M72.12988,14.71191h0.62402
			c1.89648,0,2.16064-0.36035,2.16064-2.95215c0-2.56836-0.14404-2.80859-1.63232-2.80859h-1.15234V14.71191z"/>
		<path class="st0" d="M80.19336,11.35156c0-2.42383,0.79199-4.56055,4.05664-4.56055c3.09619,0,4.08008,1.6084,4.08008,4.29688
			v8.76074c0,2.42383-0.79199,4.55957-4.08008,4.55957c-3.07227,0-4.05664-1.60742-4.05664-4.2959V11.35156z M82.59375,20.25586
			c0,1.48828,0.67188,2.28027,1.65625,2.28027c1.00781,0,1.68018-0.79199,1.68018-2.28027v-9.09668
			c0-1.7041-0.57617-2.49609-1.68018-2.49609c-1.08008,0-1.65625,0.79199-1.65625,2.49609V20.25586z"/>
		<path class="st0" d="M93.99414,6.93555h2.78418l3.52832,17.3291h-2.40039l-0.79199-4.41602h-3.74463l-0.79199,4.41602h-2.3999
			L93.99414,6.93555z M93.72998,17.83203h3.04834l-1.48828-8.35254h-0.04785L93.72998,17.83203z"/>
		<path class="st0" d="M102.27393,11.35156c0-2.42383,0.79199-4.56055,4.05615-4.56055c2.37646,0,3.48047,1.2002,3.48047,3.14453
			v1.72754h-2.25635v-1.19922c0-1.10449-0.38379-1.80078-1.39209-1.80078c-1.24805,0-1.48779,0.88867-1.48779,2.97656v8.49707
			c0,2.04004,0.64795,2.39941,1.41602,2.39941c0.88818,0,1.46387-0.62402,1.46387-2.06348v-1.2002h2.25635v1.91992
			c0,1.82422-0.74414,3.21582-3.52832,3.21582c-3.02441,0-4.0083-1.60742-4.0083-4.2959V11.35156z"/>
		<path class="st0" d="M112.18555,6.93555h2.3999v7.44043h3.19238V6.93555h2.40039v17.3291h-2.40039V16.3916h-3.19238v7.87305
			h-2.3999V6.93555z"/>
		<path class="st0" d="M127.18555,6.93555h8.16016v2.01562h-2.87988v15.31348h-2.3999V8.95117h-2.88037V6.93555z"/>
		<path class="st0" d="M137.57715,6.93555h2.39941v7.44043h3.19238V6.93555h2.40039v17.3291h-2.40039V16.3916h-3.19238v7.87305
			h-2.39941V6.93555z"/>
		<path class="st0" d="M148.54492,6.93555h6.52832v2.01562h-4.12793v5.4248h3.88867v2.01562h-3.88867v5.85645h4.12793v2.0166
			h-6.52832V6.93555z"/>
		<path class="st0" d="M162.96875,6.93555h2.39941v7.44043h3.19238V6.93555h2.40039v17.3291h-2.40039V16.3916h-3.19238v7.87305
			h-2.39941V6.93555z"/>
		<path class="st0" d="M182.00098,20.35254c0,2.01562-0.79199,4.05566-4.05664,4.05566c-3.28809,0-4.08008-2.04004-4.08008-4.05566
			V6.93555h2.40039v13.8252c0,1.17578,0.43164,1.77539,1.67969,1.77539c1.22461,0,1.65625-0.59961,1.65625-1.77539V6.93555h2.40039
			V20.35254z"/>
		<path class="st0" d="M184.9043,6.93555h3.3125l2.83203,14.40039h0.04785V6.93555h2.25684v17.3291h-3.45703l-2.83203-14.78516
			h-0.04785v14.78516h-2.1123V6.93555z"/>
		<path class="st0" d="M195.58398,6.93555h8.16113v2.01562h-2.88086v15.31348h-2.39941V8.95117h-2.88086V6.93555z"/>
		<path class="st0" d="M205.71191,19.24805h2.40039v1.41602c0,1.15234,0.43164,1.87207,1.3916,1.87207
			c1.27246,0,1.58398-0.86328,1.58398-1.99219c0-1.46387-0.07129-1.94336-2.56836-4.41602
			c-1.53613-1.53613-2.80762-2.92871-2.80762-5.28027c0-2.83203,1.32031-4.05664,3.93652-4.05664
			c1.2959,0,2.23145,0.43262,2.80762,0.95996c0.4082,0.38379,0.69629,0.98438,0.69629,2.20801v1.63281h-2.25586v-1.36816
			c0-0.98438-0.4082-1.56055-1.34473-1.56055c-0.9834,0-1.43945,0.55273-1.43945,1.89648c0,1.17578,0.23926,1.89648,2.44824,4.2002
			c2.35156,2.44824,2.78418,3.28809,2.78418,5.37695c0,2.71191-1.05664,4.27148-3.91309,4.27148
			c-2.20801,0-3.71973-0.93555-3.71973-3.0957V19.24805z"/>
		<path class="st0" d="M216.05566,6.93555h3.81641l2.20801,13.20117h0.04785l2.20898-13.20117h3.71973v17.3291h-2.25586V8.66309
			h-0.04785l-2.44824,15.60156h-2.40039l-2.68848-15.60156h-0.04785v15.60156h-2.1123V6.93555z"/>
		<path class="st0" d="M234.22363,6.93555h2.78418l3.52832,17.3291h-2.40039l-0.79199-4.41602h-3.74414l-0.79199,4.41602h-2.40039
			L234.22363,6.93555z M233.95996,17.83203h3.04785l-1.48828-8.35254h-0.04785L233.95996,17.83203z"/>
		<path class="st0" d="M242.8877,6.93555h3.31152l2.83301,14.40039h0.04785V6.93555h2.25586v17.3291h-3.45605l-2.83203-14.78516H245
			v14.78516h-2.1123V6.93555z"/>
		<path class="st0" d="M35.91455,27.26465v-1.2002h217.5083v1.2002H35.91455z"/>
	</g>
</g>
<g>
	<path class="st1" d="M19.68677,31.04043c-0.27004-0.00255-0.53816-0.06082-0.78292-0.17494
		c-0.78794-0.36741-1.38627-0.98793-1.99867-1.60112c-4.19886-4.20424-8.40497-8.40126-12.62012-12.58916
		c-0.28579-0.28394-0.30665-0.42784-0.00803-0.7245c4.46184-4.43246,8.91367-8.87503,13.35606-13.32699
		c0.46545-0.46646,1.02596-0.72723,1.61069-0.96185c0.10879-0.04365,0.22173-0.07822,0.33694-0.09983
		c0.00635-0.00119,0.01268-0.00235,0.01898-0.00349c0.37862-0.06832,0.76882-0.00592,1.11808,0.15543
		c0.19801,0.09147,0.39681,0.18169,0.58016,0.29657c1.76096,1.10337,1.981,3.20015,0.47869,4.70682
		c-3.08288,3.09182-6.1748,6.17466-9.27428,9.24984c-0.26742,0.26532-0.28344,0.40732-0.00589,0.68039
		c1.79703,1.76808,3.5749,3.55563,5.35913,5.33671c1.33172,1.32936,2.67765,2.64484,3.99167,3.99147
		c1.51708,1.55473,1.09284,3.88481-0.84025,4.77666C20.82998,30.83412,20.4168,31.04733,19.68677,31.04043z"/>
</g>
</svg>
