<?xml version="1.0" encoding="utf-8"?>
<!-- Generator: Adobe Illustrator 23.0.3, SVG Export Plug-In . SVG Version: 6.00 Build 0)  -->
<svg version="1.1" id="Layer_1" xmlns="http://www.w3.org/2000/svg" xmlns:xlink="http://www.w3.org/1999/xlink" x="0px" y="0px"
	 viewBox="0 0 187.48053 32.57177" style="enable-background:new 0 0 187.48053 32.57177;" xml:space="preserve">
<style type="text/css">
	.st0{fill:#A6A8AB;}
</style>
<g id="w-text">
</g>
<g>
	<g>
		<path class="st0" d="M10.03857,6.4043h2.3999v15.3125h4.03271v2.0166h-6.43262V6.4043z"/>
		<path class="st0" d="M18.79834,6.4043h6.52832v2.01562h-4.12842v5.4248h3.88867v2.01562h-3.88867v5.85645h4.12842v2.0166h-6.52832
			V6.4043z"/>
		<path class="st0" d="M30.75049,6.4043h2.78418l3.52832,17.3291H34.6626l-0.79199-4.41602h-3.74463l-0.79199,4.41602h-2.3999
			L30.75049,6.4043z M30.48633,17.30078h3.04834l-1.48828-8.35254h-0.04785L30.48633,17.30078z"/>
		<path class="st0" d="M37.27734,6.4043h2.40039l2.49609,13.77637h0.04785L44.71826,6.4043h2.3999l-3.52832,17.3291h-2.78418
			L37.27734,6.4043z"/>
		<path class="st0" d="M49.39746,6.4043h6.52832v2.01562h-4.12842v5.4248h3.88867v2.01562h-3.88867v5.85645h4.12842v2.0166h-6.52832
			V6.4043z"/>
		<path class="st0" d="M63.8208,6.4043h2.3999v7.44043h3.19238V6.4043h2.40039v17.3291h-2.40039v-7.87305H66.2207v7.87305h-2.3999
			V6.4043z"/>
		<path class="st0" d="M74.7168,6.4043h2.40039v17.3291H74.7168V6.4043z"/>
		<path class="st0" d="M80.02148,6.4043h3.81641l2.20703,13.20117h0.04883L88.30176,6.4043h3.71973v17.3291h-2.25586V8.13184
			h-0.04785L87.26953,23.7334h-2.40039l-2.6875-15.60156h-0.04883V23.7334h-2.11133V6.4043z"/>
		<path class="st0" d="M102.96484,6.4043H105.75l3.52734,17.3291h-2.40039l-0.79102-4.41602h-3.74512l-0.79199,4.41602h-2.40039
			L102.96484,6.4043z M102.70117,17.30078H105.75l-1.48828-8.35254h-0.04883L102.70117,17.30078z"/>
		<path class="st0" d="M111.62891,6.4043h2.39941v15.3125h4.03223v2.0166h-6.43164V6.4043z"/>
		<path class="st0" d="M120.31641,10.82031c0-2.42383,0.79102-4.56055,4.05664-4.56055c3.0957,0,4.08008,1.6084,4.08008,4.29688
			v8.76074c0,2.42383-0.79297,4.55957-4.08008,4.55957c-3.07227,0-4.05664-1.60742-4.05664-4.2959V10.82031z M122.7168,19.72461
			c0,1.48828,0.67188,2.28027,1.65625,2.28027c1.00781,0,1.67969-0.79199,1.67969-2.28027v-9.09668
			c0-1.7041-0.57617-2.49609-1.67969-2.49609c-1.08008,0-1.65625,0.79199-1.65625,2.49609V19.72461z"/>
		<path class="st0" d="M131.35547,6.4043h3.3125L137.5,20.80469h0.04883V6.4043h2.25586v17.3291h-3.45703l-2.83203-14.78516
			h-0.04688V23.7334h-2.11328V6.4043z"/>
		<path class="st0" d="M142.7793,6.4043h6.5293v2.01562h-4.12891v5.4248h3.88867v2.01562h-3.88867v5.85645h4.12891v2.0166h-6.5293
			V6.4043z"/>
		<path class="st0" d="M9.15039,26.7334v-1.2002h141.50098v1.2002H9.15039z"/>
	</g>
</g>
<g>
	<path class="st0" d="M167.23163,1.00016c0.27003,0.00255,0.53816,0.06082,0.78291,0.17494
		c0.78793,0.36742,1.38626,0.98793,1.99867,1.60112c4.19885,4.20424,8.40497,8.40127,12.62012,12.58916
		c0.28578,0.28394,0.30664,0.42784,0.00803,0.7245c-4.46185,4.43246-8.91368,8.87503-13.35606,13.32699
		c-0.46545,0.46646-1.02596,0.72723-1.6107,0.96185c-0.10878,0.04365-0.22173,0.07822-0.33693,0.09983
		c-0.00635,0.00119-0.01268,0.00236-0.01898,0.00349c-0.37862,0.06832-0.76881,0.00591-1.11809-0.15543
		c-0.19801-0.09147-0.3968-0.18169-0.58015-0.29657c-1.76096-1.10337-1.981-3.20016-0.47868-4.70682
		c3.08289-3.09182,6.1748-6.17466,9.27428-9.24984c0.26741-0.26532,0.28343-0.40732,0.00589-0.68039
		c-1.79703-1.76808-3.57489-3.55563-5.35913-5.33671c-1.33173-1.32936-2.67766-2.64484-3.99167-3.99147
		c-1.51709-1.55473-1.09285-3.88481,0.84026-4.77666C166.08841,1.20647,166.50159,0.99326,167.23163,1.00016z"/>
</g>
</svg>
