<?xml version="1.0" encoding="utf-8"?>
<!-- Generator: Adobe Illustrator 23.0.3, SVG Export Plug-In . SVG Version: 6.00 Build 0)  -->
<svg version="1.1" xmlns="http://www.w3.org/2000/svg" xmlns:xlink="http://www.w3.org/1999/xlink" x="0px" y="0px"
	 viewBox="0 0 218.48053 32.57177" style="enable-background:new 0 0 218.48053 32.57177;" xml:space="preserve">
<style type="text/css">
	.st0{fill:#A6A8AB;}
</style>
<g id="w-text">
</g>
<g id="w-title">
	<g>
		<g>
			<g>
				<path class="st0" d="M3.03112,4.93575h8.16064v2.01562H8.31139v15.31348h-2.3999V6.95137H3.03112V4.93575z"/>
				<path class="st0" d="M14.69567,4.93575h2.78418l3.52832,17.3291h-2.40039l-0.79199-4.41602h-3.74414l-0.79248,4.41602h-2.3999
					L14.69567,4.93575z M14.43151,15.83223h3.04834l-1.48828-8.35254h-0.04785L14.43151,15.83223z"/>
				<path class="st0" d="M23.35875,4.93575h2.3999v7.89648H25.807l3.79199-7.89648h2.40039l-4.03223,8.13672l4.32031,9.19238
					h-2.68848L25.807,13.59981h-0.04834v8.66504h-2.3999V4.93575z"/>
				<path class="st0" d="M34.32701,4.93575h6.52832v2.01562h-4.12842v5.4248h3.88867v2.01562h-3.88867v5.85645h4.12842v2.0166
					h-6.52832V4.93575z"/>
				<path class="st0" d="M42.82262,17.24825h2.40039v1.41602c0,1.15234,0.43164,1.87207,1.39209,1.87207
					c1.27197,0,1.58398-0.86328,1.58398-1.99219c0-1.46387-0.07178-1.94336-2.56836-4.41602
					c-1.53613-1.53613-2.80811-2.92871-2.80811-5.28027c0-2.83203,1.32031-4.05664,3.93652-4.05664
					c1.2959,0,2.23193,0.43262,2.80811,0.95996c0.4082,0.38379,0.6958,0.98438,0.6958,2.20801V9.592h-2.25586V8.22383
					c0-0.98438-0.4082-1.56055-1.34424-1.56055c-0.98389,0-1.43994,0.55273-1.43994,1.89648
					c0,1.17578,0.23975,1.89648,2.44824,4.2002c2.35205,2.44824,2.78418,3.28809,2.78418,5.37695
					c0,2.71191-1.05615,4.27148-3.9126,4.27148c-2.20801,0-3.72021-0.93555-3.72021-3.0957V17.24825z"/>
				<path class="st0" d="M57.1986,4.93575h8.16064v2.01562h-2.88037v15.31348h-2.3999V6.95137H57.1986V4.93575z"/>
				<path class="st0" d="M67.59019,4.93575h2.3999v7.44043h3.19238V4.93575h2.40039v17.3291h-2.40039V14.3918H69.9901v7.87305
					h-2.3999V4.93575z"/>
				<path class="st0" d="M78.55846,4.93575h6.52832v2.01562h-4.12842v5.4248h3.88867v2.01562h-3.88867v5.85645h4.12842v2.0166
					h-6.52832V4.93575z"/>
				<path class="st0" d="M92.90953,9.35176c0-2.42383,0.79199-4.56055,4.05664-4.56055c3.09619,0,4.08008,1.6084,4.08008,4.29688
					v8.76074c0,2.42383-0.79199,4.55957-4.08008,4.55957c-3.07227,0-4.05664-1.60742-4.05664-4.2959V9.35176z M95.30992,18.25606
					c0,1.48828,0.67188,2.28027,1.65625,2.28027c1.00781,0,1.68018-0.79199,1.68018-2.28027V9.15938
					c0-1.7041-0.57617-2.49609-1.68018-2.49609c-1.08008,0-1.65625,0.79199-1.65625,2.49609V18.25606z"/>
				<path class="st0" d="M102.91783,4.93575h8.16064v2.01562h-2.88037v15.31348h-2.3999V6.95137h-2.88037V4.93575z"/>
				<path class="st0" d="M113.30943,4.93575h2.3999v7.44043h3.19238V4.93575h2.40039v17.3291h-2.40039V14.3918h-3.19238v7.87305
					h-2.3999V4.93575z"/>
				<path class="st0" d="M124.27769,4.93575h6.52832v2.01562h-4.12842v5.4248h3.88867v2.01562h-3.88867v5.85645h4.12842v2.0166
					h-6.52832V4.93575z"/>
				<path class="st0" d="M133.03697,4.93575h3.72021c3.50439,0,3.86426,0.93555,3.86426,4.72754
					c0,2.3291-0.31201,3.33691-2.28027,3.93652v0.04785c1.63232,0.16895,2.18457,1.00879,2.18457,2.64062v3.76855
					c0,0.62402,0,1.48828,0.14355,2.20801h-2.25586c-0.24023-0.43164-0.28809-0.86426-0.28809-1.56055v-3.91211
					c0-1.63184-0.28809-2.06445-1.87207-2.06445h-0.81641v7.53711h-2.3999V4.93575z M135.43687,12.71212h0.62402
					c1.89648,0,2.16064-0.36035,2.16064-2.95215c0-2.56836-0.14404-2.80859-1.63232-2.80859h-1.15234V12.71212z"/>
				<path class="st0" d="M149.23668,4.93575h3.96045c3.26416,0,3.88818,0.8877,3.88818,4.89648
					c0,4.00781-0.62402,4.89551-3.88818,4.89551h-1.56055v7.53711h-2.3999V4.93575z M151.63658,12.71212h1.24854
					c1.63184,0,1.7998-0.26367,1.7998-2.87988s-0.16797-2.88086-1.7998-2.88086h-1.24854V12.71212z"/>
				<path class="st0" d="M161.18932,4.93575h2.78418l3.52832,17.3291h-2.40039l-0.79199-4.41602h-3.74463l-0.79199,4.41602h-2.3999
					L161.18932,4.93575z M160.92516,15.83223h3.04834l-1.48828-8.35254h-0.04785L160.92516,15.83223z"/>
				<path class="st0" d="M167.18883,4.93575h8.16064v2.01562h-2.88037v15.31348h-2.3999V6.95137h-2.88037V4.93575z"/>
				<path class="st0" d="M177.58043,4.93575h2.3999v7.44043h3.19238V4.93575h2.40039v17.3291h-2.40039V14.3918h-3.19238v7.87305
					h-2.3999V4.93575z"/>
				<path class="st0" d="M2.88707,25.26485v-1.2002h184.77344v1.2002H2.88707z"/>
			</g>
		</g>
		<g>
			<path class="st0" d="M199.96844,1.53134c0.27005,0.00255,0.53816,0.06082,0.78291,0.17494
				c0.78795,0.36742,1.38628,0.98793,1.99867,1.60112c4.19887,4.20424,8.40497,8.40127,12.62012,12.58916
				c0.2858,0.28394,0.30666,0.42784,0.00803,0.7245c-4.46184,4.43246-8.91367,8.87503-13.35605,13.32699
				c-0.46545,0.46646-1.02596,0.72723-1.6107,0.96185c-0.10878,0.04365-0.22173,0.07822-0.33694,0.09983
				c-0.00635,0.00119-0.01266,0.00235-0.01898,0.00349c-0.37862,0.06832-0.76881,0.00592-1.11807-0.15543
				c-0.19801-0.09147-0.39682-0.18169-0.58015-0.29657c-1.76096-1.10337-1.981-3.20016-0.4787-4.70682
				c3.08289-3.09182,6.1748-6.17466,9.27428-9.24984c0.26743-0.26532,0.28345-0.40732,0.00591-0.68039
				c-1.79704-1.76808-3.57491-3.55563-5.35913-5.33671c-1.33173-1.32936-2.67766-2.64484-3.99167-3.99147
				c-1.51709-1.55473-1.09285-3.88481,0.84024-4.77666C198.82524,1.73765,199.23842,1.52444,199.96844,1.53134z"/>
		</g>
	</g>
</g>
</svg>
