<?xml version="1.0" encoding="utf-8"?>
<!-- Generator: Adobe Illustrator 23.0.3, SVG Export Plug-In . SVG Version: 6.00 Build 0)  -->
<svg version="1.1" id="Layer_1" xmlns="http://www.w3.org/2000/svg" xmlns:xlink="http://www.w3.org/1999/xlink" x="0px" y="0px"
	 viewBox="0 0 518 270" style="enable-background:new 0 0 518 270;" xml:space="preserve">
<style type="text/css">
	.st0{fill:#231F20;}
	.st1{fill:#BE1E2D;}
	.st2{fill:#FFFFFF;}
</style>
<g id="w-text">
</g>
<g>
	<g>
		<path class="st0" d="M65.16846,21.71143v10.53711H63.2417V10.51221h5.99072c4.18457,0,5.23828,1.38477,5.23828,5.20801
			c0,2.70996-0.45117,4.5166-3.37158,5.17871v0.05957c3.04053,0.63281,3.22119,0.99414,3.22119,8.76074
			c0,0.84375,0.15039,1.68652,0.21094,2.5293h-1.83643c-0.18066-0.63184-0.271-4.24512-0.30127-5.41895
			c-0.03027-0.93359,0.60205-5.11816-3.58252-5.11816H65.16846z M65.16846,20.08545h3.13086
			c2.89014,0,4.24463-0.75195,4.24463-4.39453c0-2.98047-1.17383-3.55273-3.43164-3.55273h-3.94385V20.08545z"/>
		<path class="st0" d="M89.85449,10.51221v1.62598h-7.91797v8.12793h7.55664v1.62598h-7.55664v8.73047h8.12842v1.62598H80.00977
			V10.51221H89.85449z"/>
		<path class="st0" d="M94.88135,10.51221h5.75049c6.08105,0,6.83398,3.55273,6.83398,10.95898
			c0,7.22461-1.05371,10.77734-7.61719,10.77734h-4.96729V10.51221z M96.80811,30.62256h2.34814
			c5.81055,0,6.38281-1.56543,6.38281-10.44629c0-6.23145-0.84326-8.03809-6.20215-8.03809h-2.52881V30.62256z"/>
		<path class="st0" d="M121.22266,32.24854V10.51221h1.92676v9.75391h8.55029v-9.75391h1.92676v21.73633h-1.92676V21.89209h-8.55029
			v10.35645H121.22266z"/>
		<path class="st0" d="M146.8418,10.51221l6.77393,21.73633h-2.01709l-1.74609-5.71973h-8.52002l-1.71582,5.71973h-1.92676
			l6.86377-21.73633H146.8418z M149.34082,24.90283l-3.70312-12.2832h-0.06055l-3.67285,12.2832H149.34082z"/>
		<path class="st0" d="M166.92188,16.02197c-0.06055-2.67969-0.72266-4.30566-3.67285-4.30566
			c-2.34814,0-3.82324,0.81348-3.82324,3.37207c0,3.22168,1.62549,3.31152,4.09375,5.08789
			c2.67969,1.92676,5.41992,2.49902,5.41992,6.71387c0,3.88281-1.9873,5.78027-5.78027,5.78027
			c-4.24512,0-6.14209-2.28809-5.96143-6.5332h1.98682c0,2.4082,0.18066,4.90723,4.06445,4.90723
			c2.5293,0,3.76367-1.35449,3.76367-3.85352c0-2.9502-1.95703-3.79297-5.08789-5.71973
			c-4.21533-2.58984-4.396-3.88379-4.42578-6.05176c-0.03027-3.7627,2.34814-5.32812,5.90039-5.32812
			c4.51562,0,5.47949,2.7998,5.47949,5.93066H166.92188z"/>
		<path class="st0" d="M184.26172,21.71143v10.53711h-1.92676V10.51221h5.99121c4.18457,0,5.23828,1.38477,5.23828,5.20801
			c0,2.70996-0.45117,4.5166-3.37207,5.17871v0.05957c3.04102,0.63281,3.22168,0.99414,3.22168,8.76074
			c0,0.84375,0.15039,1.68652,0.21094,2.5293h-1.83691c-0.18066-0.63184-0.27051-4.24512-0.30078-5.41895
			c-0.03027-0.93359,0.60254-5.11816-3.58203-5.11816H184.26172z M184.26172,20.08545h3.13086
			c2.89062,0,4.24512-0.75195,4.24512-4.39453c0-2.98047-1.17383-3.55273-3.43164-3.55273h-3.94434V20.08545z"/>
		<path class="st0" d="M208.94824,10.51221v1.62598h-7.91797v8.12793h7.55664v1.62598h-7.55664v8.73047h8.12891v1.62598h-10.05566
			V10.51221H208.94824z"/>
		<path class="st0" d="M213.43262,21.38037c0-5.87012,0.06055-11.28906,6.56348-11.28906c5.26855,0,5.3584,4.33496,5.3584,6.29199
			h-1.92676c0-2.40918-0.66211-4.66699-3.43164-4.66699c-4.57617,0-4.63672,3.88379-4.63672,9.66406
			s0.06055,9.66406,4.63672,9.66406c2.49805,0,3.43164-2.22754,3.46191-5.02734h2.04688c0,1.56543-0.36133,6.65332-5.50879,6.65332
			C213.49316,32.67041,213.43262,27.25146,213.43262,21.38037z"/>
		<path class="st0" d="M240.37695,10.51221v1.62598h-7.91797v8.12793h7.55664v1.62598h-7.55664v8.73047h8.12891v1.62598h-10.05566
			V10.51221H240.37695z"/>
		<path class="st0" d="M247.4502,10.51221v21.73633h-1.92676V10.51221H247.4502z"/>
		<path class="st0" d="M264.21875,10.51221h1.86719l-6.02148,21.73633h-2.4082l-6.05176-21.73633h2.04785l5.14746,19.44824h0.06055
			L264.21875,10.51221z"/>
		<path class="st0" d="M279.99414,10.51221v1.62598h-7.91797v8.12793h7.55664v1.62598h-7.55664v8.73047h8.12891v1.62598h-10.05566
			V10.51221H279.99414z"/>
		<path class="st0" d="M285.02051,10.51221h5.75c6.08203,0,6.83398,3.55273,6.83398,10.95898
			c0,7.22461-1.05371,10.77734-7.61621,10.77734h-4.96777V10.51221z M286.94727,30.62256h2.34863
			c5.81055,0,6.38184-1.56543,6.38184-10.44629c0-6.23145-0.84277-8.03809-6.20117-8.03809h-2.5293V30.62256z"/>
		<path class="st0" d="M318.73828,10.51221l6.77344,21.73633h-2.01758l-1.74609-5.71973h-8.51953l-1.71582,5.71973h-1.92676
			l6.86426-21.73633H318.73828z M321.23633,24.90283l-3.70312-12.2832h-0.05957l-3.67285,12.2832H321.23633z"/>
		<path class="st1" d="M341.97852,32.24854h-4.5459l4.60547-21.73633h8.39941c3.10156,0,4.66699,1.9873,3.88379,5.69043
			c-0.57129,2.76953-2.10742,4.84668-5.14746,5.32812l-0.03027,0.06055c0.96289,0.12012,3.88379,0.36133,3.04004,4.27441
			c-0.30078,1.38574-1.08301,5.47949-0.84277,6.38281h-4.45508c-0.33105-1.32422,0.12012-2.7998,0.4209-4.21484
			c0.54199-2.58887,1.26465-4.78711-2.22754-4.78711h-1.17383L341.97852,32.24854z M344.59766,19.90479h2.0166
			c1.80664,0,2.70996-1.80566,3.01074-3.19043c0.42188-2.07715-0.27051-2.86035-1.71582-2.86035h-2.01758L344.59766,19.90479z"/>
		<path class="st1" d="M357.27148,32.24854l4.60645-21.73633h11.86133l-0.69238,3.3418h-7.31543l-1.14453,5.3584h6.74414
			l-0.72266,3.3418h-6.74316l-1.3252,6.35254h7.55664l-0.72266,3.3418H357.27148z"/>
		<path class="st1" d="M378.19531,10.51221h4.72656l0.03027,15.80566h0.05957l7.13574-15.80566h4.48535l-10.35645,21.73633h-5.32812
			L378.19531,10.51221z"/>
		<path class="st1" d="M397.19043,21.38037c1.2041-5.75,2.37891-11.22949,9.875-11.22949s6.32227,5.47949,5.11816,11.22949
			c-1.20508,5.69043-2.40918,11.22949-9.90527,11.22949S395.98633,27.0708,397.19043,21.38037z M407.57715,21.38037
			c1.17383-5.56934,1.35449-7.97754-1.2041-7.97754c-2.55957,0-3.40234,2.4082-4.57617,7.97754
			c-1.2041,5.56934-1.38477,7.97852,1.17383,7.97852C405.53027,29.35889,406.37305,26.94971,407.57715,21.38037z"/>
		<path class="st1" d="M416.51758,32.24854l4.60645-21.73633h4.5459l-3.82324,18.12402h6.80371l-0.7832,3.6123H416.51758z"/>
		<path class="st1" d="M435.72461,10.51221h4.72656l0.03027,15.80566h0.05957l7.13574-15.80566h4.48535l-10.35645,21.73633h-5.32812
			L435.72461,10.51221z"/>
		<path class="st1" d="M452.61328,32.24854l4.60645-21.73633h11.86133l-0.69238,3.3418h-7.31543l-1.14453,5.3584h6.74414
			l-0.72266,3.3418h-6.74316l-1.3252,6.35254h7.55664l-0.72266,3.3418H452.61328z"/>
		<path class="st1" d="M475.13184,32.24854h-4.5459l4.60547-21.73633h8.39941c3.10156,0,4.66699,1.9873,3.88379,5.69043
			c-0.57129,2.76953-2.10742,4.84668-5.14746,5.32812l-0.03027,0.06055c0.96289,0.12012,3.88379,0.36133,3.04004,4.27441
			c-0.30078,1.38574-1.08301,5.47949-0.84277,6.38281h-4.45508c-0.33105-1.32422,0.12012-2.7998,0.4209-4.21484
			c0.54199-2.58887,1.26465-4.78711-2.22754-4.78711h-1.17383L475.13184,32.24854z M477.75098,19.90479h2.0166
			c1.80664,0,2.70996-1.80566,3.01074-3.19043c0.42188-2.07715-0.27051-2.86035-1.71582-2.86035h-2.01758L477.75098,19.90479z"/>
	</g>
	<polygon class="st1" points="46.74484,32.25069 36.06847,10.89795 25.3921,32.25069 	"/>
</g>
<g>
	<path class="st1" d="M275.71136,138.75856c0,0-7.71329-24.96278-23.26811-26.02442c0,0-18.76143,6.6366-19.21184,26.75242
		l0.83607,18.15836c0,0-2.58746,0.56325-3.95242,7.2364c0,0-5.45985,15.92456-4.39822,29.42253
		c0,0-2.27493,41.40387-11.67801,50.35196c0,0,47.92537,5.91484,85.84102-1.66829
		c0.1449,0.36353-10.2178-15.15352-12.58801-33.66908c-2.2883-17.87581-4.54987-38.52228-4.54987-38.52228
		s-1.17191-6.35594-6.19748-11.06442L275.71136,138.75856z"/>
	<path class="st0" d="M246.61798,158.51149l1.04568-1.48878c0,0-7.52654-3.79109-6.5103-17.56401
		c0.37773-5.11925,3.16823-9.78452,7.59035-12.39112c2.45262-1.44569,5.33669-2.2119,8.21637-0.86021
		c0,0,10.74124,4.39821,8.05807,19.71613c0,0-1.28696,7.16434-5.84479,9.75017l0.33594,2.20047l-6.35597,5.68028
		L246.61798,158.51149z"/>
	<path class="st0" d="M288.37418,121.80915v-7.58312l-5.76318,8.18977l-19.86441,37.97952
		c-0.64917,0.09995-0.32419,0.42906-0.64917,0.09995l-2.5881-2.62112l-12.89133,0.63734l-2.26149,1.99452
		c-0.56252,0.49612-1.44846,0.26436-1.69598-0.44366l-12.52473-35.82659l-5.76318-10.00973l-1.51662,12.27685l14.86293,44.14161
		c0,0,0.91182,15.91809-1.81996,36.39902c0,0-4.8532,19.10948-8.79642,22.14273h14.12917l7.14331,23.65935h7.24008h6.37024
		l6.06113-23.65935h15.1712c0,0-4.03201-5.57216-5.3082-10.76805c-2.12326-8.64476-6.52148-38.7132-6.21814-46.71205
		L288.37418,121.80915z"/>
	<path class="st1" d="M247.66367,157.02271c0,0,13.19617,9.98189,15.92609,20.90158c0,0-9.21262-11.60904-19.20464-15.89952
		c-0.5665-0.24324-1.56693-1.66837-1.56693-1.66837L247.66367,157.02271z"/>
	<path class="st1" d="M260.81223,162.42683c-3.53922,2.49231-10.81085,8.56595-12.35701,17.27814
		c0,0-2.01018-15.06834,10.71815-24.03131c5.08914-3.58365,5.1196-0.30009,4.48996,2.50818
		C263.2775,159.90268,262.25412,161.41144,260.81223,162.42683z"/>
</g>
<g>
	<path d="M288.86008,101.27322c-0.83179,0.20139-1.65454,0.46442-2.49774,0.58772c-0.94019,0.13748-1.89917,0.20387-2.84958,0.20035
		c-1.3609-0.00505-2.31512-0.67358-2.80075-1.96927c-0.14313-0.38195-0.28665-0.76451-0.45059-1.13776
		c-0.31012-0.70618-0.59921-1.42509-0.96304-2.1033c-0.46072-0.85883-0.86734-1.72872-1.12033-2.67549
		c-0.24387-0.91253-0.59879-1.77577-1.1843-2.54575c-0.58157-0.76484-0.96097-1.64077-1.24759-2.56657
		c-0.28891-0.93311-1.00992-1.50494-1.87671-1.883c-1.02994-0.44925-2.08459-0.38568-3.13889-0.07493
		c-0.15936,0.04697-0.31738,0.09859-0.58621,0.18241c-0.27301-0.82245-0.53342-1.6272-0.80753-2.42727
		c-0.3002-0.87614-0.58868-1.75758-0.92862-2.6184c-0.24011-0.60806-0.2319-0.80835,0.30673-1.17376
		c0.54654-0.37077,1.12762-0.69171,1.66562-1.07384c1.95923-1.39162,2.6998-3.94754,1.76245-6.01904
		c-0.27322-0.60382-0.65475-1.15466-1.23318-1.45914c-0.5567-0.29305-0.5769-0.76077-0.68991-1.31757
		c0.95721-0.14895,1.88068-0.29016,2.80313-0.43776c0.2634-0.04214,0.52551-0.09557,0.78525-0.15646
		c0.57013-0.13366,0.94232,0.2123,1.02151,0.78668c0.05893,0.42744,0.23904,0.86802,0.4707,1.23637
		c0.77917,1.23889,1.8349,2.23866,2.9501,3.16661c0.9614,0.79996,1.92648,1.60773,2.96341,2.30235
		c3.02625,2.02724,5.43463,4.65922,7.57083,7.56585c2.255,3.06825,4.20605,6.32087,5.819,9.77201
		c0.23138,0.49506,0.40015,1.01938,0.59766,1.52951c0.23425-0.00161,0.41245-0.00283,0.59064-0.00404
		c0.03049,0.07874,0.06097,0.15749,0.09146,0.23623c-0.73108,0.61589-1.43286,1.27184-2.2027,1.83469
		c-0.59131,0.43233-1.26834,0.7474-1.90726,1.11462C290.80246,100.52126,289.83127,100.89724,288.86008,101.27322z
		 M277.95853,88.99558c1.23593,2.61395,2.22058,4.7793,3.2818,6.90645c0.54343,1.08928,1.16489,2.15115,1.85873,3.15067
		c0.71478,1.02967,1.77695,1.36524,3.01682,1.12074c1.66638-0.3286,3.16061-1.0833,4.64035-1.86917
		c0.7348-0.39026,1.4303-0.84364,1.94489-1.5226c0.3866-0.51012,0.44174-1.05054,0.15753-1.62354
		c-0.15002-0.30247-0.31192-0.59921-0.45734-0.90383c-1.0257-2.14864-2.15976-4.23643-3.51443-6.19754
		c-1.29367-1.8728-2.73846-3.60963-4.61707-4.93481c-1.0481-0.73932-2.18121-1.29473-3.47888-1.41779
		c-0.79388-0.07529-1.56702-0.01649-2.27304,0.43835c-1.34064,0.86368-1.70682,2.14787-1.43207,3.60043
		C277.32477,87.00639,277.74908,88.23478,277.95853,88.99558z"/>
	<path d="M218.46796,84.33746c0.1387-0.08865,0.26675-0.20618,0.41763-0.26182c7.96146-2.93604,15.92482-5.8669,23.88826-8.79754
		c0.08972-0.03301,0.18309-0.05609,0.29936-0.09125c0.49287,1.27312,0.97807,2.52642,1.47639,3.81363
		c-0.11375,0.05202-0.22192,0.10965-0.33571,0.15238c-7.87799,2.95873-15.75606,5.91725-23.63693,8.86831
		c-0.19928,0.07462-0.42978,0.0659-0.64572,0.09606C219.44348,86.85732,218.95572,85.59739,218.46796,84.33746z"/>
	<path d="M222.22472,77.90301c0.22778,0.58838,0.45557,1.17677,0.69696,1.80031c-1.34692,0.52145-2.71594,1.05144-4.12434,1.59668
		c-0.24898-0.43637-0.40349-0.8905-0.37825-1.39423c0.01617-0.32267,0.22939-0.48859,0.5072-0.60933
		c0.65611-0.28513,1.30685-0.58266,1.95976-0.87518C221.33226,78.2485,221.77849,78.07576,222.22472,77.90301z"/>
	<path d="M251.46951,83.79095c0.92137-0.3567,1.78271-0.69015,2.66827-1.03298c-0.07452-0.40041-0.14316-0.76912-0.2184-1.17338
		c2.99791-1.16059,5.98509-2.31703,9.04021-3.49978c-0.66949-3.17075-1.82199-6.11354-3.44766-8.9374
		c-2.91934,1.13018-5.77608,2.23612-8.68494,3.36224c-0.16051-0.3326-0.27719-0.63182-0.44722-0.89679
		c-0.06294-0.09808-0.2787-0.19296-0.37811-0.15771c-0.76889,0.27263-1.53206,0.56371-2.28615,0.87533
		c-1.51062,0.62425-3.01279,1.269-4.52321,1.89375c-0.16069,0.06647-0.35506,0.08739-0.5304,0.07619
		c-0.6454-0.04124-1.29016-0.09742-1.93321-0.16633c-0.13254-0.01421-0.25662-0.10735-0.38461-0.1641
		c0.11163-0.08768,0.21024-0.20852,0.33678-0.25823c3.7981-1.49214,7.59894-2.97726,11.39935-4.46347
		c0.02621-0.01025,0.05179-0.02279,0.07878-0.03028c1.34564-0.37376,2.52875-1.15589,3.98401-1.31714
		c1.33902-0.14836,2.63705-0.67564,3.94919-1.0499c0.25269-0.07208,0.45566-0.0537,0.57758,0.1812
		c1.37711,2.65282,3.77902,3.73134,6.53799,4.24873c0.68973,0.12934,1.39029,0.20705,2.08884,0.28041
		c0.2775,0.02914,0.37952,0.18269,0.2692,0.38102c-0.27603,0.49624,0.07022,0.67355,0.39865,0.83637
		c0.58401,0.28953,1.06189,0.68236,1.38702,1.25164c0.95212,1.66712,0.41925,3.99908-1.22937,5.24567
		c-0.53659,0.40573-1.13239,0.73259-1.69577,1.10363c-0.95462,0.62871-1.11417,1.16853-0.64609,2.214
		c0.43805,0.97839,0.80927,1.96663,0.95532,3.04628c0.06503,0.48083,0.38071,0.9295,0.59268,1.38814
		c0.15707,0.33988,0.25409,0.6209-0.16055,0.89519c-0.25613,0.16943-0.4512,0.46883-0.60556,0.74761
		c-0.53418,0.96484-1.33597,1.64535-2.31387,2.08173c-1.26758,0.56563-2.53815,1.18599-3.87277,1.52724
		c-2.84592,0.72768-5.15134-0.45594-6.46239-3.12688c-0.093-0.18947-0.20392-0.37351-0.27016-0.5722
		c-0.50699-1.52051-1.75194-2.1808-3.12064-2.70504c-0.12035-0.0461-0.27753-0.12029-0.32092-0.22248
		C251.94917,85.05938,251.72591,84.45323,251.46951,83.79095z M260.34586,82.94133
		c-0.02158-0.03539-0.04312-0.07077-0.06467-0.10616c-0.94528,0.57324-1.94702,1.07211-2.82272,1.73698
		c-1.34976,1.02482-1.52519,1.88513-0.92261,3.46552c0.82199,2.15586,2.39847,3.368,4.49033,3.33424
		c2.1059-0.03398,4.00226-0.74537,5.6304-2.08106c1.09219-0.89603,1.54181-2.08568,1.30368-3.4993
		c-0.15744-0.93455-0.53946-1.78889-1.14047-2.50738c-0.53961-0.6451-1.34753-0.84494-2.146-0.97475
		C263.16858,82.06472,261.73868,82.3891,260.34586,82.94133z M269.62866,74.06311c-0.45297-1.11996-1.55121-1.31602-2.36154-0.43514
		c-0.14713,0.15993-0.35666,0.27149-0.55359,0.37446c-0.31104,0.16267-0.64545,0.28165-0.95245,0.45087
		c-0.45316,0.24976-0.65128,0.63261-0.57239,1.02932c0.17587,0.88449,0.71045,1.20188,1.57486,0.93522
		c0.3624-0.11181,0.71933-0.25137,1.08936-0.32511c0.25275-0.05037,0.54288,0.054,0.78339-0.01908
		C269.63123,75.77132,270.10654,75.17232,269.62866,74.06311z"/>
	<path d="M250.9567,72.89658c0.11562-0.0742,0.22267-0.1703,0.34814-0.21929c1.78207-0.69582,3.56593-1.38713,5.35254-2.07124
		c0.10031-0.03841,0.29431-0.0511,0.33215,0.00298c0.19577,0.27981,0.41171,0.16331,0.6355,0.07653
		c0.28854-0.11192,0.57758-0.22255,0.86575-0.3354c0.25259-0.09892,0.54233-0.16812,0.41855-0.51869
		c0.35239-0.20312,0.5155-0.02423,0.6283,0.22802c0.63092,1.41075,1.29865,2.80714,1.86896,4.24214
		c0.38809,0.97643,0.64407,2.00609,0.94006,3.01752c0.03928,0.13422-0.03421,0.30143-0.05545,0.45336
		c-0.14014-0.03254-0.27881-0.07764-0.42084-0.09393c-0.1315-0.01509-0.27704-0.03118-0.39801,0.00883
		c-0.34683,0.11472-0.68048,0.269-1.0267,0.38589c-0.27374,0.09241-0.43915,0.24046-0.38208,0.54751
		c-2.06104,0.7979-4.10487,1.58914-6.20381,2.40171c-0.07983-0.29446-0.15413-0.56844-0.25343-0.93468
		c0.46031-0.17821,0.90596-0.34029,1.34337-0.52222c0.94795-0.39426,1.89442-0.79241,2.83528-1.20324
		c0.24286-0.10603,0.49704-0.22945,0.68289-0.40991c0.1705-0.16557,0.25586-0.41882,0.37872-0.63345
		c-0.22708-0.06679-0.46448-0.21219-0.67914-0.18408c-0.45587,0.05969-0.91382,0.17165-1.34607,0.33
		c-1.17307,0.42976-2.33316,0.89489-3.56735,1.37269c-0.19283-0.57349-0.34608-1.02927-0.53629-1.59496
		c0.82243-0.31839,1.6149-0.60228,2.38829-0.93102c0.77499-0.32942,1.54222-0.68181,2.28981-1.06867
		c0.30856-0.15968,0.73013-0.38923,0.56885-0.82118c-0.16248-0.43515-0.63593-0.33302-0.9671-0.23994
		c-0.98666,0.27732-1.9615,0.59938-2.93228,0.9295c-0.60895,0.20708-1.20229,0.46011-1.82999,0.70311
		c-0.20169-0.52099-0.37122-0.95889-0.57741-1.49151c0.36385-0.14086,0.72899-0.27263,1.08655-0.42249
		c0.97281-0.40771,1.94919-0.80814,2.90942-1.2439c0.31363-0.14233,0.59682-0.36684,0.86296-0.5906
		c0.09396-0.07899,0.16238-0.2942,0.12082-0.39898c-0.04208-0.10611-0.24481-0.22781-0.35944-0.21221
		c-0.51183,0.06968-1.0336,0.13609-1.52177,0.29554c-1.12276,0.36674-2.22772,0.7878-3.34081,1.18429
		c-0.12398,0.04416-0.25377,0.072-0.38086,0.10741C251.00876,72.99355,250.98273,72.94506,250.9567,72.89658z M260.35672,75.65792
		c0.19672-0.07616,0.39142-0.15813,0.59064-0.22704c0.26468-0.09153,0.34409-0.24255,0.23837-0.51781
		c-0.10379-0.27035-0.23892-0.40028-0.53705-0.27755c-0.36404,0.14986-0.73059,0.29499-1.10202,0.42516
		c-0.28845,0.10107-0.4119,0.242-0.2886,0.56654c0.12256,0.32256,0.3056,0.36127,0.58792,0.23027
		C260.01147,75.78069,260.18607,75.72351,260.35672,75.65792z M259.22446,72.69978c-0.00049-0.0013-0.00101-0.0026-0.0015-0.00391
		c0.20963-0.08116,0.41983-0.16097,0.62878-0.24381c0.28693-0.11372,0.25937-0.31291,0.16656-0.5519
		c-0.095-0.24462-0.23349-0.33026-0.4863-0.22765c-0.3775,0.15322-0.75635,0.30454-1.14108,0.43816
		c-0.29535,0.10259-0.39996,0.25041-0.27444,0.56869c0.12881,0.32655,0.3237,0.34062,0.59756,0.21969
		C258.88098,72.82535,259.05411,72.76572,259.22446,72.69978z"/>
	<path d="M220.61414,88.81197c6.23352-2.34454,12.41629-4.67,18.58459-6.99001c0.15015,0.38785,0.25859,0.76179,0.43622,1.09933
		c0.16405,0.31175,0.43773,0.37613,0.7915,0.23474c1.34531-0.53767,2.69995-1.05199,4.05161-1.57378
		c0.18976-0.07326,0.39391-0.19682,0.53102,0.13328c-0.13065,0.05788-0.2532,0.11731-0.3795,0.16739
		c-7.23117,2.86732-14.46257,5.7341-21.69423,8.60022c-0.96976,0.38435-1.55756,0.14494-1.98778-0.81652
		C220.82336,89.38902,220.72551,89.09964,220.61414,88.81197z M221.40369,88.82043c0.25946,0.91934,0.38162,0.98225,1.16458,0.67216
		c1.6868-0.66806,3.37358-1.33612,5.0603-2.00439c0.09149-0.03625,0.189-0.06378,0.27069-0.1158
		c0.04816-0.03065,0.07066-0.10156,0.10471-0.15437c-0.06364-0.03757-0.12488-0.09982-0.19156-0.10635
		c-0.07939-0.00777-0.16399,0.03037-0.24545,0.05193c-1.44077,0.38129-2.88199,0.76095-4.32181,1.1458
		C222.63823,88.47163,222.03432,88.64506,221.40369,88.82043z M234.63356,84.68661c-0.00136-0.00349-0.0027-0.00697-0.00406-0.01046
		c0.20903-0.08092,0.41513-0.17075,0.62778-0.24065c0.30865-0.10146,0.27206-0.29715,0.17458-0.53173
		c-0.09645-0.23212-0.17299-0.45629-0.50717-0.30896c-0.35869,0.15815-0.72356,0.30432-1.09277,0.43593
		c-0.2981,0.10625-0.43887,0.23791-0.30301,0.58907c0.13631,0.35229,0.31752,0.41837,0.63583,0.25174
		C234.31273,84.79408,234.47678,84.74731,234.63356,84.68661z M229.52989,86.7321c-0.00201-0.00517-0.00401-0.01035-0.00603-0.01552
		c0.23503-0.09099,0.4729-0.17535,0.70441-0.27457c0.3214-0.13774,0.15866-0.36342,0.08727-0.56491
		c-0.06915-0.19521-0.15378-0.37125-0.42168-0.2618c-0.44072,0.18006-0.89128,0.33823-1.32129,0.54051
		c-0.09261,0.04356-0.17758,0.24535-0.15965,0.35718c0.07599,0.47385,0.24716,0.55767,0.6861,0.386
		C229.24246,86.8429,229.38626,86.78771,229.52989,86.7321z M237.18964,83.66668c-0.00259-0.00673-0.0052-0.01345-0.0078-0.02018
		c0.22177-0.08586,0.4427-0.174,0.66553-0.25703c0.31721-0.11819,0.22003-0.33422,0.1346-0.54965
		c-0.08176-0.20617-0.16548-0.39682-0.45331-0.27783c-0.42668,0.1764-0.86566,0.32577-1.2807,0.52552
		c-0.1012,0.04871-0.20113,0.26266-0.17899,0.37685c0.09589,0.49465,0.22719,0.55118,0.69023,0.36909
		C236.90239,83.77714,237.04614,83.72223,237.18964,83.66668z M232.12616,85.68299
		c-0.00143-0.00367-0.00285-0.00735-0.00427-0.01102c0.20859-0.08075,0.41492-0.16802,0.62627-0.24072
		c0.31783-0.10931,0.23871-0.31463,0.1512-0.53857c-0.08871-0.22701-0.17525-0.41682-0.48161-0.28564
		c-0.4111,0.17604-0.82742,0.34056-1.24594,0.49828c-0.21484,0.08098-0.2663,0.20615-0.1998,0.42258
		c0.1409,0.45864,0.23662,0.51173,0.68489,0.33684C231.81316,85.80376,231.96973,85.74355,232.12616,85.68299z"/>
	<path d="M239.65443,74.18967c-0.05859,0.55741,0.22581,0.63518,0.60719,0.6423c0.36252,0.00677,0.72418,0.06081,1.10899,0.18577
		c-7.66463,2.82138-15.32925,5.64277-23.04485,8.48291c-0.09804-0.37398-0.18481-0.70503-0.2892-1.10323
		C225.22571,79.66789,232.39578,76.94559,239.65443,74.18967z"/>
	<path d="M247.77634,73.27135c0.50851,1.31351,1.0036,2.59237,1.50879,3.89731c-1.3369,0.51756-2.65279,1.02699-3.99738,1.54752
		c-0.50166-1.29585-1.00027-2.58379-1.50877-3.89731C245.10448,74.30572,246.42033,73.7963,247.77634,73.27135z"/>
	<path d="M270.41595,66.85439c-0.17441,0.15864-0.32526,0.36232-0.52734,0.46799c-0.79614,0.4163-1.29977,1.10347-1.74545,1.83912
		c-0.52246,0.86237-0.43085,1.06567,0.53403,1.35667c-0.22726,0.0527-0.46375,0.17559-0.68036,0.14713
		c-1.98199-0.26041-3.84561-0.8272-5.367-2.21005c-0.21536-0.19577-0.40668-0.41801-0.70227-0.72462
		c0.62167-0.32698,1.16739-0.62846,1.73053-0.89276c0.07425-0.03486,0.25925,0.09756,0.35608,0.19081
		c0.54498,0.52476,1.06064,1.08153,1.62497,1.58393c0.23227,0.2068,0.54813,0.34475,0.84912,0.44308
		c0.38364,0.12533,0.68356-0.0554,0.74744-0.45392c0.10559-0.65882,0.51505-1.04633,1.07654-1.30212
		c0.4588-0.20901,0.93033-0.39507,1.4086-0.5541c0.19302-0.06418,0.41895-0.02931,0.62988-0.03953
		C270.37247,66.75548,270.3942,66.80493,270.41595,66.85439z"/>
	<path d="M237.48203,85.46053c0.91946-0.35596,1.83563-0.70564,2.748-1.06493c1.71257-0.6744,3.42474-1.34991,5.13214-2.03721
		c0.23279-0.0937,0.40907-0.09618,0.61847,0.0547c0.35873,0.25849,0.73933,0.48661,1.16164,0.76047
		c-0.52734,0.20415-0.97563,0.39066-1.43266,0.55244c-2.22505,0.78761-4.45226,1.56913-6.67912,2.35159
		C238.38824,86.30325,237.80467,86.08392,237.48203,85.46053z"/>
	<path d="M246.22913,81.18469c-0.22864-0.59059-0.44518-1.14993-0.67195-1.73569c1.33336-0.51619,2.65079-1.02621,3.99886-1.5481
		c0.22258,0.57492,0.44212,1.14201,0.67195,1.7357C248.90459,80.14893,247.58817,80.65856,246.22913,81.18469z"/>
	<path d="M251.31168,74.50381c0.1638,0.42313,0.30428,0.80254,0.45779,1.17658c0.09941,0.24221-0.06754,0.28944-0.22997,0.35201
		c-0.53828,0.2074-1.07132,0.42967-1.61575,0.61931c-0.28094,0.09785-0.32384,0.22795-0.22517,0.50097
		c0.42557,1.17773,0.41797,1.18048,1.57553,0.73237c0.35257-0.13649,0.70512-0.27298,1.12534-0.43566
		c0.16226,0.48589,0.31447,0.94169,0.47343,1.41776c-0.75375,0.29181-1.45972,0.56511-2.18666,0.84653
		c-0.68214-1.76204-1.37073-3.54069-1.99042-5.1414c0.2804,0.83561,0.28041,0.83562,1.24646,0.46167
		C250.38428,74.86285,250.82629,74.69172,251.31168,74.50381z"/>
	<path d="M246.69319,81.84258c1.31686-0.5098,2.55247-0.98815,3.81773-1.47797c0.16956,0.438,0.33348,0.86142,0.52002,1.34328
		c-0.6234,0.24133-1.27579,0.42588-1.86046,0.7375c-0.72681,0.38739-1.33286,0.33419-1.92252-0.22414
		C247.10873,82.0894,246.92853,82.0008,246.69319,81.84258z"/>
	<path d="M260.65686,64.81893c-0.18909,0.35132-0.37817,0.70264-0.60028,1.11532c-1.14386,0.38669-2.40668,0.8136-3.66953,1.2405
		c-0.02954-0.04298-0.05911-0.08595-0.08868-0.12893c0.38068-0.34003,0.58475-0.8448,1.11499-1.04632
		c0.66989-0.2546,1.33865-0.51246,2.00385-0.77907c0.10535-0.04222,0.27719-0.14938,0.26959-0.20699
		c-0.07883-0.60004,0.37564-0.6238,0.79999-0.76121c0.09305,0.20319,0.18338,0.40042,0.27368,0.59764
		C260.72592,64.83957,260.69141,64.82925,260.65686,64.81893z"/>
	<path d="M243.85307,85.17508c2.36215-0.86909,4.72432-1.73818,7.08481-2.60666c0.26816,0.43251,0.27087,0.46144-0.18527,0.61824
		c-2.06924,0.71128-4.14035,1.41736-6.2169,2.10691c-0.20453,0.06791-0.4507,0.0104-0.67755,0.01111
		C243.85646,85.26148,243.85477,85.21828,243.85307,85.17508z"/>
	<path d="M231.47716,87.8343c0.2186-0.08463,0.37022-0.1426,0.52132-0.20193c1.39969-0.54965,2.79921-1.09968,4.19891-1.64928
		c0.56496-0.22183,0.56509-0.22147,0.91255,0.34531c-0.83806,0.32444-1.66547,0.66345-2.50642,0.96465
		c-0.72719,0.26045-1.47523,0.46258-2.20308,0.72135C232.07124,88.13144,231.81609,88.05798,231.47716,87.8343z"/>
	<path d="M244.89874,79.8923c0.12912,0.33354,0.23799,0.61478,0.34898,0.90147c-1.03641,0.40123-2.05005,0.79365-3.08546,1.19449
		c-0.12404-0.3204-0.23286-0.6015-0.34898-0.90147C242.84464,80.68752,243.8486,80.29884,244.89874,79.8923z"/>
	<path d="M223.6656,79.44883c-0.10004-0.25842-0.17958-0.46385-0.28654-0.74017c1.32489-0.45064,2.57655-1.19148,4.05344-0.85014
		c0.01082,0.03982,0.02164,0.07964,0.03246,0.11946C226.21309,78.46261,224.96123,78.94725,223.6656,79.44883z"/>
	<path d="M248.60905,87.14542c-0.26089-0.67391-0.52122-1.34636-0.78796-2.03537c0.40329-0.15612,0.74788-0.30212,1.10265-0.41659
		c0.0739-0.02384,0.2132,0.0437,0.27536,0.11194C249.87289,85.54507,249.54286,86.79325,248.60905,87.14542z"/>
	<path d="M249.78857,84.36753c0.33739-0.13061,0.62035-0.24016,0.93732-0.36286c0.26521,0.68507,0.52846,1.36505,0.79968,2.06565
		c-0.45229,0.17509-0.8876,0.34362-1.3891,0.53777C250.39221,85.78057,250.2829,85.04829,249.78857,84.36753z"/>
	<path d="M253.25136,80.27584c0.30847,0.8811,0.30872,0.88171-0.49586,1.19141c-0.36676,0.14117-0.73448,0.27987-1.10252,0.41766
		c-0.0239,0.00895-0.05429,0.00054-0.11627-0.00022c-0.2231-0.57627-0.4511-1.16521-0.67908-1.75414
		c0.36919,0.92922,0.36919,0.92921,1.30446,0.56699C252.52524,80.5569,252.88841,80.41634,253.25136,80.27584z"/>
	<path d="M248.60738,73.30288c-0.05856-0.15129-0.10748-0.27767-0.16951-0.43787c0.47568-0.18415,0.94843-0.36716,1.45909-0.56486
		c0.06371,0.1284,0.12872,0.25941,0.20958,0.42236C249.60425,72.91696,249.12917,73.10088,248.60738,73.30288z"/>
	<path d="M253.16101,81.87045c0.20474,0.30769,0.13463,0.46556-0.16852,0.56696c-0.36856,0.12328-0.72699,0.27684-1.08139,0.41404
		c-0.21379-0.28669-0.18785-0.44939,0.13509-0.55466C252.41663,82.17601,252.77547,82.0197,253.16101,81.87045z"/>
	<path d="M248.41162,73.96233c0.06761-0.08234,0.1187-0.20484,0.20551-0.24056c0.5956-0.24506,1.19727-0.47576,1.80116-0.69979
		c0.07375-0.02736,0.17244,0.01251,0.25958,0.02123c-0.03972,0.07195-0.06258,0.18559-0.12169,0.20947
		c-0.68372,0.27623-1.37292,0.53887-2.06067,0.80513C248.46754,74.02598,248.43958,73.99416,248.41162,73.96233z"/>
	<path d="M261.58884,65.66935c-0.11035,0.16171-0.19534,0.42188-0.33792,0.45861c-0.15533,0.04003-0.36411-0.12715-0.54956-0.204
		c0.07816-0.18546,0.10938-0.45294,0.2482-0.53235c0.12814-0.0733,0.37167,0.05512,0.56439,0.0947
		C261.53891,65.54732,261.56387,65.60833,261.58884,65.66935z"/>
	<path d="M241.42088,81.5647c-0.48473,0.18765-0.96945,0.37531-1.45418,0.56296c-0.00967-0.02583-0.01935-0.05164-0.02902-0.07747
		c0.48347-0.18717,0.96695-0.37434,1.45042-0.56151C241.39903,81.51402,241.40996,81.53937,241.42088,81.5647z"/>
	<path d="M241.53802,81.87656c-0.48454,0.18758-0.96909,0.37517-1.45363,0.56275c-0.00957-0.0258-0.01915-0.0516-0.02872-0.07739
		c0.48355-0.1872,0.9671-0.3744,1.45065-0.5616C241.51689,81.82574,241.52745,81.85115,241.53802,81.87656z"/>
	<path d="M240.1727,82.62411c0.47192-0.18269,0.94385-0.36539,1.41577-0.54809c0.00877,0.02303,0.01755,0.04607,0.02632,0.06911
		c-0.47185,0.18267-0.9437,0.36533-1.41554,0.548C240.1904,82.67013,240.18155,82.64712,240.1727,82.62411z"/>
	<path d="M251.8481,86.65254c0.313,0.00477,0.62599,0.00954,0.939,0.01431c-0.00032,0.05123-0.00064,0.10246-0.00095,0.15369
		c-0.30704,0.0023-0.61409,0.00459-0.92113,0.00688C251.85939,86.76913,251.85374,86.71084,251.8481,86.65254z"/>
	<path d="M241.30623,81.30305c-0.47379,0.18342-0.94759,0.36684-1.42137,0.55025c-0.00902-0.02271-0.01805-0.0454-0.02708-0.06811
		c0.4727-0.183,0.9454-0.366,1.41811-0.549C241.286,81.25848,241.29611,81.28076,241.30623,81.30305z"/>
	<path class="st2" d="M277.95853,88.99558c-0.20944-0.7608-0.63376-1.9892-0.87271-3.25265
		c-0.27475-1.45255,0.09143-2.73675,1.43207-3.60043c0.70602-0.45484,1.47916-0.51365,2.27304-0.43835
		c1.29767,0.12306,2.43079,0.67847,3.47888,1.41779c1.8786,1.32518,3.32339,3.06202,4.61707,4.93481
		c1.35468,1.96111,2.48874,4.0489,3.51443,6.19754c0.14542,0.30463,0.30731,0.60136,0.45734,0.90383
		c0.28421,0.573,0.22906,1.11342-0.15753,1.62354c-0.51459,0.67896-1.21008,1.13234-1.94489,1.5226
		c-1.47974,0.78587-2.97397,1.54057-4.64035,1.86917c-1.23987,0.2445-2.30203-0.09107-3.01682-1.12074
		c-0.69385-0.99952-1.31531-2.06139-1.85873-3.15067C280.17911,93.77489,279.19446,91.60954,277.95853,88.99558z
		 M278.36621,88.56518c1.30124,2.75315,2.42368,5.17942,3.59622,7.58122c0.4176,0.85545,0.89725,1.69459,1.4541,2.4649
		c0.88959,1.23061,1.85342,1.55003,3.28693,1.04422c1.26886-0.44772,2.50662-1.0005,3.71591-1.59305
		c0.63351-0.31042,1.21921-0.75782,1.74899-1.23025c0.63077-0.56243,0.64938-1.04196,0.23712-1.77045
		c-0.08301-0.14665-0.15259-0.30086-0.23444-0.4482c-1.1055-1.99014-2.14404-4.02164-3.33746-5.95766
		c-1.20715-1.95837-2.6933-3.71029-4.56589-5.09116c-0.99655-0.73485-2.07349-1.30352-3.31973-1.47925
		c-0.77023-0.1086-1.50687-0.05637-2.17551,0.42059c-1.05939,0.75568-1.3508,1.8319-1.15131,3.01789
		C277.81357,86.66772,278.16953,87.78395,278.36621,88.56518z"/>
	<path class="st2" d="M269.62866,74.06311c0.47787,1.10921,0.00256,1.70821-0.99237,2.01053
		c-0.24051,0.07308-0.53064-0.03129-0.78339,0.01908c-0.37003,0.07375-0.72696,0.2133-1.08936,0.32511
		c-0.86441,0.26666-1.39899-0.05073-1.57486-0.93522c-0.07889-0.39671,0.11923-0.77956,0.57239-1.02932
		c0.30701-0.16921,0.64142-0.2882,0.95245-0.45087c0.19693-0.10297,0.40646-0.21453,0.55359-0.37446
		C268.07745,72.74709,269.17569,72.94315,269.62866,74.06311z M268.13312,74.71743c0.0202,0.05222,0.03775,0.10566,0.06107,0.15646
		c0.20471,0.44625,0.45096,0.54435,0.90881,0.40639c0.42889-0.12923,0.36047-0.43627,0.29504-0.74394
		c-0.12567-0.59068-0.46268-1.0358-0.74738-0.99969c-0.0408,0.00517-0.07986,0.0249-0.11945,0.03873
		C267.98605,73.76584,267.87729,74.07587,268.13312,74.71743z M267.45236,75.22031
		c-0.53207,0.10117-1.04059,0.19785-1.57117,0.29872c0.26248,0.47845,0.5567,0.64106,0.94278,0.53942
		C267.21722,75.95492,267.4422,75.70312,267.45236,75.22031z M267.34924,75.00809c-0.14151-0.42098-0.43469-0.60197-0.83578-0.54349
		c-0.38864,0.05668-0.62842,0.35212-0.64099,0.82554C266.36826,75.19544,266.85632,75.10223,267.34924,75.00809z"/>
	<path class="st2" d="M260.35663,75.65771c-0.17056,0.0658-0.34515,0.12298-0.51065,0.19977
		c-0.28232,0.131-0.46536,0.09229-0.58792-0.23027c-0.12329-0.32453,0.00015-0.46546,0.2886-0.56654
		c0.37143-0.13017,0.73798-0.27529,1.10202-0.42516c0.29813-0.12273,0.43326,0.0072,0.53705,0.27755
		c0.10571,0.27526,0.02631,0.42628-0.23837,0.51781C260.74814,75.49979,260.55344,75.58176,260.35663,75.65771z"/>
	<path class="st2" d="M259.22446,72.69978c-0.17035,0.06595-0.34348,0.12557-0.51041,0.19928
		c-0.27386,0.12093-0.46875,0.10686-0.59756-0.21969c-0.12552-0.31828-0.0209-0.46609,0.27444-0.56869
		c0.38474-0.13362,0.76358-0.28494,1.14108-0.43816c0.25281-0.10262,0.3913-0.01698,0.4863,0.22765
		c0.0928,0.23898,0.12036,0.43817-0.16656,0.5519c-0.20895,0.08284-0.41916,0.16265-0.62878,0.24381
		C259.22345,72.69717,259.22397,72.69847,259.22446,72.69978z"/>
	<path class="st2" d="M221.40369,88.82043c0.63063-0.17538,1.23454-0.3488,1.84146-0.51102
		c1.43982-0.38485,2.88104-0.7645,4.32181-1.1458c0.08147-0.02155,0.16606-0.05969,0.24545-0.05193
		c0.06668,0.00652,0.12791,0.06877,0.19156,0.10635c-0.03404,0.0528-0.05655,0.12372-0.10471,0.15437
		c-0.0817,0.05202-0.1792,0.07955-0.27069,0.1158c-1.68672,0.66827-3.3735,1.33633-5.0603,2.00439
		C221.78531,89.80269,221.66315,89.73978,221.40369,88.82043z"/>
	<path class="st2" d="M234.63356,84.68661c-0.15678,0.0607-0.32083,0.10748-0.46883,0.18494
		c-0.31831,0.16663-0.49953,0.10055-0.63583-0.25174c-0.13586-0.35117,0.00491-0.48282,0.30301-0.58907
		c0.36922-0.13161,0.73409-0.27778,1.09277-0.43593c0.33418-0.14733,0.41072,0.07684,0.50717,0.30896
		c0.09749,0.23458,0.13408,0.43027-0.17458,0.53173c-0.21265,0.06989-0.41875,0.15972-0.62778,0.24065
		C234.63086,84.67963,234.6322,84.68312,234.63356,84.68661z"/>
	<path class="st2" d="M229.52989,86.7321c-0.14363,0.05561-0.28743,0.11079-0.43088,0.1669
		c-0.43893,0.17167-0.61011,0.08784-0.6861-0.386c-0.01793-0.11183,0.06705-0.31361,0.15965-0.35718
		c0.43001-0.20228,0.88057-0.36045,1.32129-0.54051c0.2679-0.10946,0.35252,0.06659,0.42168,0.2618
		c0.0714,0.20149,0.23413,0.42717-0.08727,0.56491c-0.23151,0.09922-0.46938,0.18358-0.70441,0.27457
		C229.52588,86.72176,229.52788,86.72693,229.52989,86.7321z"/>
	<path class="st2" d="M237.18964,83.66668c-0.14349,0.05555-0.28725,0.11046-0.43044,0.16677
		c-0.46304,0.18209-0.59435,0.12556-0.69023-0.36909c-0.02214-0.1142,0.07779-0.32814,0.17899-0.37685
		c0.41504-0.19975,0.85402-0.34912,1.2807-0.52552c0.28783-0.11899,0.37155,0.07166,0.45331,0.27783
		c0.08543,0.21543,0.18262,0.43146-0.1346,0.54965c-0.22282,0.08303-0.44376,0.17117-0.66553,0.25703
		C237.18443,83.65323,237.18704,83.65995,237.18964,83.66668z"/>
	<path class="st2" d="M232.12616,85.68299c-0.15643,0.06056-0.313,0.12077-0.46927,0.18175
		c-0.44827,0.1749-0.54399,0.1218-0.68489-0.33684c-0.0665-0.21643-0.01505-0.3416,0.1998-0.42258
		c0.41852-0.15772,0.83484-0.32224,1.24594-0.49828c0.30637-0.13119,0.3929,0.05862,0.48161,0.28564
		c0.08751,0.22395,0.16663,0.42926-0.1512,0.53857c-0.21135,0.07269-0.41768,0.15997-0.62627,0.24072
		C232.12331,85.67564,232.12473,85.67932,232.12616,85.68299z"/>
	<path d="M278.36621,88.56518c-0.19669-0.78123-0.55264-1.89745-0.74506-3.0412c-0.19949-1.18599,0.09192-2.26221,1.15131-3.01789
		c0.66864-0.47695,1.40527-0.52918,2.17551-0.42059c1.24625,0.17573,2.32318,0.7444,3.31973,1.47925
		c1.87259,1.38087,3.35873,3.13278,4.56589,5.09116c1.19342,1.93602,2.23196,3.96752,3.33746,5.95766
		c0.08185,0.14735,0.15143,0.30155,0.23444,0.4482c0.41226,0.72849,0.39365,1.20802-0.23712,1.77045
		c-0.52979,0.47243-1.11548,0.91983-1.74899,1.23025c-1.20929,0.59254-2.44705,1.14533-3.71591,1.59305
		c-1.4335,0.50581-2.39734,0.18639-3.28693-1.04422c-0.55685-0.77031-1.0365-1.60945-1.4541-2.4649
		C280.78989,93.7446,279.66745,91.31833,278.36621,88.56518z"/>
	<path d="M260.19977,83.83232c0.94138-0.53992,2.66373-0.93443,3.57416-0.84084c-0.41574,0.58601-0.20322,1.1507,0.02768,1.71898
		c0.34592,0.85135,0.62396,1.72047,0.56537,2.65671c-0.06842,1.09347-0.51126,1.98624-1.48752,2.53662
		c-0.27057,0.15255-0.61353,0.17672-0.92328,0.25979c-0.02844-0.04838-0.05685-0.09675-0.08527-0.14513
		c0.06696-0.12209,0.11981-0.25516,0.20428-0.36363c0.12021-0.15442,0.27066-0.28493,0.39606-0.43575
		c1.29617-1.55927,0.84616-3.64941-0.96802-4.57937C261.0712,84.41824,260.67407,84.12872,260.19977,83.83232z"/>
	<path d="M267.21152,85.60433c-0.72244-0.03239-1.45047-1.42062-1.42828-2.21745
		C266.62863,83.90931,266.89005,84.7357,267.21152,85.60433z"/>
	<path d="M268.13312,74.71743c-0.25583-0.64156-0.14706-0.95159,0.3981-1.14205c0.03958-0.01383,0.07864-0.03356,0.11945-0.03873
		c0.2847-0.03611,0.6217,0.40902,0.74738,0.99969c0.06543,0.30767,0.13385,0.61471-0.29504,0.74394
		c-0.45786,0.13795-0.7041,0.03986-0.90881-0.40639C268.17087,74.82309,268.15332,74.76965,268.13312,74.71743z"/>
	<path d="M267.45236,75.22031c-0.01016,0.48281-0.23514,0.7346-0.62839,0.83814c-0.38608,0.10164-0.6803-0.06097-0.94278-0.53942
		C266.41177,75.41816,266.92029,75.32148,267.45236,75.22031z"/>
	<path d="M267.34924,75.00809c-0.49292,0.09414-0.98099,0.18736-1.47678,0.28205c0.01257-0.47342,0.25235-0.76886,0.64099-0.82554
		C266.91455,74.40611,267.20773,74.5871,267.34924,75.00809z"/>
</g>
</svg>
