<?xml version="1.0" encoding="utf-8"?>
<!-- Generator: Adobe Illustrator 23.0.3, SVG Export Plug-In . SVG Version: 6.00 Build 0)  -->
<svg version="1.1" id="Layer_1" xmlns="http://www.w3.org/2000/svg" xmlns:xlink="http://www.w3.org/1999/xlink" x="0px" y="0px"
	 viewBox="0 0 518 42" style="enable-background:new 0 0 518 42;" xml:space="preserve">
<style type="text/css">
	.st0{fill:#231F20;}
	.st1{fill:#BE1E2D;}
</style>
<g id="w-text">
</g>
<g>
	<g>
		<path class="st0" d="M48.50879,20.99902v10.26465h-1.87695v-21.1748h5.83643c4.07617,0,5.10303,1.34961,5.10303,5.07422
			c0,2.63965-0.43994,4.39941-3.28467,5.04395v0.05859c2.96191,0.61621,3.1377,0.96777,3.1377,8.53418
			c0,0.82129,0.14697,1.64258,0.20557,2.46387h-1.78906c-0.17578-0.61621-0.26416-4.13477-0.29346-5.2793
			c-0.0293-0.90918,0.58643-4.98535-3.48975-4.98535H48.50879z M48.50879,19.41504h3.05029
			c2.81543,0,4.13525-0.73242,4.13525-4.28125c0-2.90332-1.14404-3.46094-3.34375-3.46094h-3.8418V19.41504z"/>
		<path class="st0" d="M72.55957,10.08887v1.58398h-7.71289v7.91895h7.36084v1.58301h-7.36084v8.50488h7.91846v1.58398h-9.79541
			v-21.1748H72.55957z"/>
		<path class="st0" d="M77.45898,10.08887h5.60156c5.92383,0,6.65723,3.46094,6.65723,10.67578
			c0,7.03809-1.02637,10.49902-7.41992,10.49902h-4.83887V10.08887z M79.33594,29.67969h2.2876
			c5.66016,0,6.21729-1.52441,6.21729-10.17676c0-6.07031-0.82129-7.83008-6.0415-7.83008h-2.46338V29.67969z"/>
		<path class="st0" d="M103.12305,31.26367v-21.1748H105v9.50293h8.3291v-9.50293h1.87695v21.1748h-1.87695V21.1748H105v10.08887
			H103.12305z"/>
		<path class="st0" d="M128.0835,10.08887l6.59863,21.1748h-1.96484l-1.70117-5.57227h-8.2998l-1.67139,5.57227h-1.87695
			l6.68652-21.1748H128.0835z M130.51758,24.10742l-3.60742-11.96484h-0.05859l-3.57764,11.96484H130.51758z"/>
		<path class="st0" d="M147.64746,15.45605c-0.05859-2.61035-0.7041-4.19336-3.57812-4.19336
			c-2.2876,0-3.72461,0.79199-3.72461,3.28418c0,3.13867,1.5835,3.22656,3.98877,4.95605
			c2.60986,1.87695,5.27881,2.43457,5.27881,6.54004c0,3.7832-1.93555,5.63086-5.63086,5.63086
			c-4.13525,0-5.98291-2.22852-5.80713-6.36328h1.93604c0,2.3457,0.17578,4.78027,3.95898,4.78027
			c2.46338,0,3.66602-1.32031,3.66602-3.75391c0-2.87402-1.90625-3.69531-4.95654-5.57227
			c-4.10596-2.52246-4.28174-3.7832-4.31104-5.89453c-0.0293-3.66602,2.2876-5.19141,5.74805-5.19141
			c4.39941,0,5.33789,2.72754,5.33789,5.77734H147.64746z"/>
		<path class="st0" d="M162.63672,31.26367v-21.1748h1.87695v19.59082h7.00977v1.58398H162.63672z"/>
		<path class="st0" d="M185.33789,10.08887v1.58398h-7.71387v7.91895h7.36133v1.58301h-7.36133v8.50488h7.91895v1.58398h-9.7959
			v-21.1748H185.33789z"/>
		<path class="st0" d="M197.33398,10.08887l6.59863,21.1748h-1.96484l-1.70117-5.57227h-8.2998l-1.67188,5.57227h-1.87695
			l6.6875-21.1748H197.33398z M199.76855,24.10742l-3.60742-11.96484h-0.05859l-3.57812,11.96484H199.76855z"/>
		<path class="st0" d="M209.68359,20.99902v10.26465h-1.87695v-21.1748h5.83594c4.07715,0,5.10352,1.34961,5.10352,5.07422
			c0,2.63965-0.44043,4.39941-3.28516,5.04395v0.05859c2.96191,0.61621,3.13867,0.96777,3.13867,8.53418
			c0,0.82129,0.14648,1.64258,0.20508,2.46387h-1.78906c-0.17578-0.61621-0.26367-4.13477-0.29297-5.2793
			c-0.0293-0.90918,0.58594-4.98535-3.49023-4.98535H209.68359z M209.68359,19.41504h3.0498
			c2.81543,0,4.13574-0.73242,4.13574-4.28125c0-2.90332-1.14355-3.46094-3.34375-3.46094h-3.8418V19.41504z"/>
		<path class="st0" d="M224.20215,31.26367v-21.1748h2.87402l8.59375,18.59375l0.05859-0.05859V10.08887h1.87695v21.1748h-2.84473
			l-8.62305-18.79883l-0.05859,0.05859v18.74023H224.20215z"/>
		<path class="st0" d="M253.12207,10.08887v1.58398h-7.71387v7.91895h7.36133v1.58301h-7.36133v8.50488h7.91895v1.58398h-9.7959
			v-21.1748H253.12207z"/>
		<path class="st0" d="M258.02051,10.08887h5.60156c5.9248,0,6.65723,3.46094,6.65723,10.67578
			c0,7.03809-1.02637,10.49902-7.41895,10.49902h-4.83984V10.08887z M259.89746,29.67969h2.28809
			c5.66016,0,6.2168-1.52441,6.2168-10.17676c0-6.07031-0.82031-7.83008-6.04102-7.83008h-2.46387V29.67969z"/>
		<path class="st0" d="M287.14648,11.67285h-5.16211v-1.58398h12.2002v1.58398h-5.16113v19.59082h-1.87695V11.67285z"/>
		<path class="st0" d="M298.1748,31.26367v-21.1748h1.87695v9.50293h8.3291v-9.50293h1.87695v21.1748h-1.87695V21.1748h-8.3291
			v10.08887H298.1748z"/>
		<path class="st0" d="M325.62793,10.08887v1.58398h-7.71387v7.91895h7.36133v1.58301h-7.36133v8.50488h7.91895v1.58398h-9.7959
			v-21.1748H325.62793z"/>
		<path class="st0" d="M347.3916,15.45605c-0.05859-2.61035-0.7041-4.19336-3.57812-4.19336
			c-2.28711,0-3.72461,0.79199-3.72461,3.28418c0,3.13867,1.58398,3.22656,3.98828,4.95605
			c2.61035,1.87695,5.2793,2.43457,5.2793,6.54004c0,3.7832-1.93555,5.63086-5.63086,5.63086
			c-4.13477,0-5.98242-2.22852-5.80664-6.36328h1.93555c0,2.3457,0.17578,4.78027,3.95898,4.78027
			c2.46387,0,3.66602-1.32031,3.66602-3.75391c0-2.87402-1.90625-3.69531-4.95605-5.57227
			c-4.10645-2.52246-4.28223-3.7832-4.31152-5.89453c-0.0293-3.66602,2.28711-5.19141,5.74805-5.19141
			c4.39941,0,5.33789,2.72754,5.33789,5.77734H347.3916z"/>
		<path class="st0" d="M354.72461,31.26367v-21.1748h1.87695v9.70801h0.05957l7.50781-9.70801h2.25781l-7.91895,9.88379
			l8.15332,11.29102h-2.3457l-7.6543-10.85156h-0.05957v10.85156H354.72461z"/>
		<path class="st0" d="M372.76367,10.08887v21.1748h-1.87695v-21.1748H372.76367z"/>
		<path class="st0" d="M378.5127,31.26367v-21.1748h1.87695v19.59082h7.00977v1.58398H378.5127z"/>
		<path class="st0" d="M391.38867,31.26367v-21.1748h1.87695v19.59082h7.00977v1.58398H391.38867z"/>
		<path class="st1" d="M415.6748,31.61523c-5.48438,0-5.80664-3.22559-4.80957-6.8916h4.42871
			c-0.41113,2.02344-0.7041,3.72461,1.72949,3.72461c1.49609,0,2.43457-0.96777,2.75684-2.40527
			c0.79199-3.8125-8.06445-4.04688-6.71582-10.35254c0.7041-3.31348,2.84473-5.95312,8.24121-5.95312
			c4.31152,0,6.04102,1.93555,4.80957,6.36426h-4.31055c0.32227-1.58398,0.41016-3.19727-1.37891-3.19727
			c-1.43652,0-2.46387,0.79199-2.75684,2.25879c-0.85059,4.01758,8.12402,3.66602,6.71582,10.32324
			C423.21191,30.9707,419.04785,31.61523,415.6748,31.61523z"/>
		<path class="st1" d="M441.60254,18.56445l1.78906-8.47559h4.42871l-4.4873,21.1748h-4.42871l1.99414-9.44336h-5.07324
			l-1.99414,9.44336h-4.42871l4.4873-21.1748h4.42871l-1.78906,8.47559H441.60254z"/>
		<path class="st1" d="M452.16309,20.67676c1.17285-5.60156,2.31738-10.93945,9.61914-10.93945
			c7.30273,0,6.15918,5.33789,4.98633,10.93945c-1.17383,5.54297-2.34668,10.93848-9.64941,10.93848
			C449.81738,31.61523,450.99023,26.21973,452.16309,20.67676z M462.28125,20.67676
			c1.14355-5.42578,1.31934-7.77246-1.17285-7.77246c-2.49316,0-3.31445,2.34668-4.45801,7.77246
			c-1.17285,5.42578-1.34863,7.77148,1.14355,7.77148C460.28711,28.44824,461.1084,26.10254,462.28125,20.67676z"/>
		<path class="st1" d="M473.01758,20.67676c1.17285-5.60156,2.31738-10.93945,9.61914-10.93945
			c7.30273,0,6.15918,5.33789,4.98633,10.93945c-1.17383,5.54297-2.34668,10.93848-9.64941,10.93848
			C470.67188,31.61523,471.84473,26.21973,473.01758,20.67676z M483.13574,20.67676
			c1.14355-5.42578,1.31934-7.77246-1.17285-7.77246c-2.49316,0-3.31445,2.34668-4.45801,7.77246
			c-1.17285,5.42578-1.34961,7.77148,1.14355,7.77148S481.96289,26.10254,483.13574,20.67676z"/>
		<path class="st1" d="M508.91699,10.08887l-0.7334,3.51953h-4.92676l-3.75391,17.65527h-4.42871l3.75391-17.65527h-4.92676
			l0.7334-3.51953H508.91699z"/>
	</g>
	<polygon class="st1" points="30.55847,31.26314 20.15638,10.45896 9.75429,31.26314 	"/>
</g>
</svg>
